<svg width="250" height="250" viewBox="0 0 250 250" fill="none" xmlns="http://www.w3.org/2000/svg">
<g style="mix-blend-mode:multiply" opacity="0.330985" filter="url(#filter0_f_1993_49204)">
<path d="M125 207.5C143.985 207.5 159.375 205.961 159.375 204.062C159.375 202.164 143.985 200.625 125 200.625C106.015 200.625 90.625 202.164 90.625 204.062C90.625 205.961 106.015 207.5 125 207.5Z" fill="url(#paint0_linear_1993_49204)" style="mix-blend-mode:multiply"/>
</g>
<g opacity="0.779367">
<g opacity="0.598842" filter="url(#filter1_f_1993_49204)">
<path d="M49.7103 155.876C51.9407 155.876 53.7488 155.327 53.7488 154.649C53.7488 153.971 51.9407 153.422 49.7103 153.422C47.48 153.422 45.6719 153.971 45.6719 154.649C45.6719 155.327 47.48 155.876 49.7103 155.876Z" fill="#85A0C7"/>
</g>
<path opacity="0.576521" fill-rule="evenodd" clip-rule="evenodd" d="M46.1624 154.63C47.308 155.117 52.6728 146.663 53.4546 144.405C54.2364 142.148 53.4064 139.695 51.6008 138.927C49.7951 138.158 47.6976 139.366 46.9158 141.623C46.134 143.88 45.0167 154.142 46.1624 154.63Z" fill="url(#paint1_linear_1993_49204)"/>
<path opacity="0.779367" fill-rule="evenodd" clip-rule="evenodd" d="M46.3671 154.636C47.7599 154.233 47.5551 142.235 46.8829 139.521C46.2106 136.807 43.8861 135.123 41.6909 135.759C39.4957 136.396 38.2611 139.111 38.9333 141.825C39.6055 144.539 44.9743 155.04 46.3671 154.636Z" fill="url(#paint2_linear_1993_49204)"/>
</g>
<path opacity="0.7" fill-rule="evenodd" clip-rule="evenodd" d="M59.0625 56.875C58.7751 56.875 58.492 56.8565 58.2144 56.8207C57.8772 56.8568 57.5345 56.875 57.1875 56.875C51.8372 56.875 47.5 52.5378 47.5 47.1875C47.5 41.8372 51.8372 37.5 57.1875 37.5C57.8038 37.5 58.4066 37.5575 58.9909 37.6676C61.1844 33.4815 65.5711 30.625 70.625 30.625C77.8737 30.625 83.75 36.5013 83.75 43.75H91.5625C95.1869 43.75 98.125 46.6881 98.125 50.3125C98.125 53.9369 95.1869 56.875 91.5625 56.875H59.0625Z" fill="url(#paint3_linear_1993_49204)"/>
<path fill-rule="evenodd" clip-rule="evenodd" d="M25 185C35.8584 169.089 46.2266 161.133 56.1046 161.133C65.9827 161.133 77.2811 169.089 90 185H25Z" fill="url(#paint4_linear_1993_49204)"/>
<path fill-rule="evenodd" clip-rule="evenodd" d="M63.5 185C74.9574 163.333 87.2187 152.5 100.284 152.5C113.349 152.5 137.088 163.333 171.5 185H63.5Z" fill="url(#paint5_linear_1993_49204)"/>
<path fill-rule="evenodd" clip-rule="evenodd" d="M225 185C213.036 168.073 201.752 159.609 191.149 159.609C180.545 159.609 163.496 168.073 140 185H225Z" fill="url(#paint6_linear_1993_49204)"/>
<g opacity="0.669852" filter="url(#filter2_f_1993_49204)">
<path d="M187.528 138.748C189.238 138.748 190.625 138.305 190.625 137.757C190.625 137.209 189.238 136.766 187.528 136.766C185.817 136.766 184.43 137.209 184.43 137.757C184.43 138.305 185.817 138.748 187.528 138.748Z" fill="#85A0C7"/>
</g>
<path opacity="0.576521" fill-rule="evenodd" clip-rule="evenodd" d="M184.806 137.746C185.685 138.094 189.8 132.053 190.4 130.439C190.999 128.826 190.363 127.074 188.978 126.525C187.593 125.976 185.984 126.838 185.384 128.451C184.784 130.065 183.927 137.397 184.806 137.746Z" fill="url(#paint7_linear_1993_49204)"/>
<path fill-rule="evenodd" clip-rule="evenodd" d="M184.658 137.751C185.738 137.467 185.579 129.025 185.058 127.116C184.537 125.207 182.734 124.022 181.031 124.47C179.328 124.917 178.371 126.828 178.892 128.737C179.414 130.646 183.578 138.035 184.658 137.751Z" fill="url(#paint8_linear_1993_49204)"/>
<g opacity="0.896856">
<g opacity="0.596866" filter="url(#filter3_f_1993_49204)">
<path d="M197.438 206.247C199.681 206.247 201.5 205.694 201.5 205.01C201.5 204.327 199.681 203.773 197.438 203.773C195.194 203.773 193.375 204.327 193.375 205.01C193.375 205.694 195.194 206.247 197.438 206.247Z" fill="#85A0C7"/>
</g>
<path opacity="0.576521" fill-rule="evenodd" clip-rule="evenodd" d="M194.513 205.233C196.002 205.823 202.976 195.597 203.993 192.867C205.009 190.137 203.93 187.17 201.583 186.241C199.235 185.312 196.508 186.772 195.492 189.502C194.476 192.232 193.023 204.644 194.513 205.233Z" fill="url(#paint9_linear_1993_49204)"/>
<path opacity="0.896856" fill-rule="evenodd" clip-rule="evenodd" d="M194.497 205.247C196.348 204.764 196.076 190.408 195.183 187.161C194.289 183.915 191.2 181.9 188.283 182.661C185.366 183.422 183.725 186.671 184.619 189.918C185.512 193.165 192.646 205.73 194.497 205.247Z" fill="url(#paint10_linear_1993_49204)"/>
</g>
<path fill-rule="evenodd" clip-rule="evenodd" d="M87.6935 135.728C91.362 135.728 94.3359 138.837 94.3359 142.673C94.3359 146.508 91.362 149.617 87.6935 149.617C84.0251 149.617 81.0512 146.508 81.0512 142.673C81.0512 138.837 84.0251 135.728 87.6935 135.728ZM88.0635 116.236C97.0111 116.236 105.074 121.209 109.049 128.946C110.311 131.402 109.342 134.416 106.886 135.678C104.478 136.915 101.534 136.009 100.23 133.658L100.154 133.515C97.884 129.097 93.2451 126.236 88.0635 126.236C82.8879 126.236 78.2573 129.091 75.9866 133.489L75.875 133.711C74.6549 136.188 71.6576 137.207 69.1803 135.987C66.7031 134.767 65.684 131.769 66.9041 129.292C70.8081 121.366 78.9757 116.236 88.0635 116.236ZM87.6773 99.3281C102.403 99.3281 115.677 107.452 122.315 120.123C123.597 122.57 122.652 125.591 120.206 126.873C117.76 128.154 114.738 127.21 113.457 124.764C108.536 115.37 98.6638 109.328 87.6773 109.328C76.822 109.328 67.0534 115.227 62.0746 124.431L61.9252 124.711C60.6386 127.155 57.6149 128.092 55.1715 126.806C52.7281 125.519 51.7903 122.496 53.0768 120.052C59.7282 107.42 72.9803 99.3281 87.6773 99.3281Z" fill="#C0CEE3"/>
<mask id="mask0_1993_49204" style="mask-type:alpha" maskUnits="userSpaceOnUse" x="87" y="76" width="68" height="110">
<path d="M144.349 76.25H97.6953C92.1725 76.25 87.6953 80.7272 87.6953 86.25V175.547C87.6953 181.07 92.1725 185.547 97.6953 185.547H144.349C149.872 185.547 154.349 181.07 154.349 175.547V86.25C154.349 80.7272 149.872 76.25 144.349 76.25Z" fill="white"/>
</mask>
<g mask="url(#mask0_1993_49204)">
<path d="M144.349 76.25H97.6953C92.1725 76.25 87.6953 80.7272 87.6953 86.25V175.547C87.6953 181.07 92.1725 185.547 97.6953 185.547H144.349C149.872 185.547 154.349 181.07 154.349 175.547V86.25C154.349 80.7272 149.872 76.25 144.349 76.25Z" fill="url(#paint11_linear_1993_49204)"/>
<path d="M144.349 77.5H97.6953C92.1725 77.5 87.6953 81.9772 87.6953 87.5V176.797C87.6953 182.32 92.1725 186.797 97.6953 186.797H144.349C149.872 186.797 154.349 182.32 154.349 176.797V87.5C154.349 81.9772 149.872 77.5 144.349 77.5Z" fill="url(#paint12_linear_1993_49204)"/>
</g>
<path d="M144.511 81.0703H98.0703C95.3089 81.0703 93.0703 83.3089 93.0703 86.0703V175.188C93.0703 177.949 95.3089 180.188 98.0703 180.188H144.511C147.273 180.188 149.511 177.949 149.511 175.188V86.0703C149.511 83.3089 147.273 81.0703 144.511 81.0703Z" fill="url(#paint13_linear_1993_49204)"/>
<path d="M144.511 82.3203H98.0703C95.3089 82.3203 93.0703 84.5589 93.0703 87.3203V175.188C93.0703 177.949 95.3089 180.188 98.0703 180.188H144.511C147.273 180.188 149.511 177.949 149.511 175.188V87.3203C149.511 84.5589 147.273 82.3203 144.511 82.3203Z" fill="url(#paint14_linear_1993_49204)"/>
<path opacity="0.668201" d="M139.026 104.023H104.003C101.335 104.023 99.1719 106.186 99.1719 108.854C99.1719 111.522 101.335 113.685 104.003 113.685H139.026C141.694 113.685 143.857 111.522 143.857 108.854C143.857 106.186 141.694 104.023 139.026 104.023Z" fill="#DFE7F1"/>
<path opacity="0.824681" d="M110.011 110.985L110.721 110.425L109.511 109.055L111.281 108.575L110.991 107.715L109.311 108.395L109.421 106.555H108.501L108.611 108.395L106.931 107.715L106.641 108.575L108.401 109.055L107.191 110.425L107.901 110.985L108.961 109.455L110.011 110.985ZM115.151 110.985L115.861 110.425L114.651 109.055L116.421 108.575L116.131 107.715L114.451 108.395L114.561 106.555H113.641L113.751 108.395L112.071 107.715L111.781 108.575L113.541 109.055L112.331 110.425L113.041 110.985L114.101 109.455L115.151 110.985ZM120.291 110.985L121.001 110.425L119.791 109.055L121.561 108.575L121.271 107.715L119.591 108.395L119.701 106.555H118.781L118.891 108.395L117.211 107.715L116.921 108.575L118.681 109.055L117.471 110.425L118.181 110.985L119.241 109.455L120.291 110.985ZM125.431 110.985L126.141 110.425L124.931 109.055L126.701 108.575L126.411 107.715L124.731 108.395L124.841 106.555H123.921L124.031 108.395L122.351 107.715L122.061 108.575L123.821 109.055L122.611 110.425L123.321 110.985L124.381 109.455L125.431 110.985ZM130.571 110.985L131.281 110.425L130.071 109.055L131.841 108.575L131.551 107.715L129.871 108.395L129.981 106.555H129.061L129.171 108.395L127.491 107.715L127.201 108.575L128.961 109.055L127.751 110.425L128.461 110.985L129.521 109.455L130.571 110.985ZM135.711 110.985L136.421 110.425L135.211 109.055L136.981 108.575L136.691 107.715L135.011 108.395L135.121 106.555H134.201L134.311 108.395L132.631 107.715L132.341 108.575L134.101 109.055L132.891 110.425L133.601 110.985L134.661 109.455L135.711 110.985Z" fill="#C0CEE3"/>
<path opacity="0.668201" d="M139.026 117.312H104.003C101.335 117.312 99.1719 119.475 99.1719 122.143C99.1719 124.811 101.335 126.974 104.003 126.974H139.026C141.694 126.974 143.857 124.811 143.857 122.143C143.857 119.475 141.694 117.312 139.026 117.312Z" fill="#DFE7F1"/>
<path opacity="0.824681" d="M115.151 124.211L115.861 123.651L114.651 122.281L116.421 121.801L116.131 120.941L114.451 121.621L114.561 119.781H113.641L113.751 121.621L112.071 120.941L111.781 121.801L113.541 122.281L112.331 123.651L113.041 124.211L114.101 122.681L115.151 124.211ZM120.291 124.211L121.001 123.651L119.791 122.281L121.561 121.801L121.271 120.941L119.591 121.621L119.701 119.781H118.781L118.891 121.621L117.211 120.941L116.921 121.801L118.681 122.281L117.471 123.651L118.181 124.211L119.241 122.681L120.291 124.211ZM125.431 124.211L126.141 123.651L124.931 122.281L126.701 121.801L126.411 120.941L124.731 121.621L124.841 119.781H123.921L124.031 121.621L122.351 120.941L122.061 121.801L123.821 122.281L122.611 123.651L123.321 124.211L124.381 122.681L125.431 124.211ZM130.571 124.211L131.281 123.651L130.071 122.281L131.841 121.801L131.551 120.941L129.871 121.621L129.981 119.781H129.061L129.171 121.621L127.491 120.941L127.201 121.801L128.961 122.281L127.751 123.651L128.461 124.211L129.521 122.681L130.571 124.211Z" fill="#C0CEE3"/>
<path d="M138.761 141.781H103.972C101.291 141.781 99.1172 143.955 99.1172 146.636C99.1172 149.317 101.291 151.49 103.972 151.49H138.761C141.442 151.49 143.616 149.317 143.616 146.636C143.616 143.955 141.442 141.781 138.761 141.781Z" fill="url(#paint15_linear_1993_49204)"/>
<mask id="mask1_1993_49204" style="mask-type:alpha" maskUnits="userSpaceOnUse" x="127" y="131" width="56" height="56">
<path d="M155.048 186.08C170.129 186.08 182.354 173.855 182.354 158.775C182.354 143.694 170.129 131.469 155.048 131.469C139.967 131.469 127.742 143.694 127.742 158.775C127.742 173.855 139.967 186.08 155.048 186.08Z" fill="white"/>
</mask>
<g mask="url(#mask1_1993_49204)">
<path d="M155.048 186.08C170.129 186.08 182.354 173.855 182.354 158.775C182.354 143.694 170.129 131.469 155.048 131.469C139.967 131.469 127.742 143.694 127.742 158.775C127.742 173.855 139.967 186.08 155.048 186.08Z" fill="url(#paint16_linear_1993_49204)"/>
<path d="M155.048 187.33C170.129 187.33 182.354 175.105 182.354 160.025C182.354 144.944 170.129 132.719 155.048 132.719C139.967 132.719 127.742 144.944 127.742 160.025C127.742 175.105 139.967 187.33 155.048 187.33Z" fill="url(#paint17_linear_1993_49204)"/>
</g>
<mask id="mask2_1993_49204" style="mask-type:alpha" maskUnits="userSpaceOnUse" x="133" y="137" width="44" height="44">
<path d="M155.05 180.015C166.78 180.015 176.288 170.506 176.288 158.777C176.288 147.048 166.78 137.539 155.05 137.539C143.321 137.539 133.812 147.048 133.812 158.777C133.812 170.506 143.321 180.015 155.05 180.015Z" fill="white"/>
</mask>
<g mask="url(#mask2_1993_49204)">
<path d="M155.05 180.015C166.78 180.015 176.288 170.506 176.288 158.777C176.288 147.048 166.78 137.539 155.05 137.539C143.321 137.539 133.812 147.048 133.812 158.777C133.812 170.506 143.321 180.015 155.05 180.015Z" fill="#F0F6FF"/>
<path d="M154.414 178.773C166.495 178.773 176.289 168.98 176.289 156.898C176.289 144.817 166.495 135.023 154.414 135.023C142.333 135.023 132.539 144.817 132.539 156.898C132.539 168.98 142.333 178.773 154.414 178.773Z" fill="url(#paint18_linear_1993_49204)"/>
</g>
<path fill-rule="evenodd" clip-rule="evenodd" d="M164.057 149.76C165.005 150.708 165.005 152.245 164.057 153.193L158.479 158.77L164.057 164.349C165.005 165.297 165.005 166.834 164.057 167.781C163.109 168.729 161.573 168.729 160.625 167.781L155.047 162.203L149.469 167.781C148.521 168.729 146.984 168.729 146.036 167.781C145.089 166.834 145.089 165.297 146.036 164.349L151.614 158.77L146.036 153.193C145.089 152.245 145.089 150.708 146.036 149.76C146.984 148.813 148.521 148.813 149.469 149.76L155.047 155.338L160.625 149.76C161.573 148.813 163.109 148.813 164.057 149.76Z" fill="url(#paint19_linear_1993_49204)"/>
<defs>
<filter id="filter0_f_1993_49204" x="88.625" y="198.625" width="72.75" height="10.875" filterUnits="userSpaceOnUse" color-interpolation-filters="sRGB">
<feFlood flood-opacity="0" result="BackgroundImageFix"/>
<feBlend mode="normal" in="SourceGraphic" in2="BackgroundImageFix" result="shape"/>
<feGaussianBlur stdDeviation="1" result="effect1_foregroundBlur_1993_49204"/>
</filter>
<filter id="filter1_f_1993_49204" x="23.6719" y="131.422" width="52.0781" height="46.4531" filterUnits="userSpaceOnUse" color-interpolation-filters="sRGB">
<feFlood flood-opacity="0" result="BackgroundImageFix"/>
<feBlend mode="normal" in="SourceGraphic" in2="BackgroundImageFix" result="shape"/>
<feGaussianBlur stdDeviation="11" result="effect1_foregroundBlur_1993_49204"/>
</filter>
<filter id="filter2_f_1993_49204" x="162.43" y="114.766" width="50.1953" height="45.9844" filterUnits="userSpaceOnUse" color-interpolation-filters="sRGB">
<feFlood flood-opacity="0" result="BackgroundImageFix"/>
<feBlend mode="normal" in="SourceGraphic" in2="BackgroundImageFix" result="shape"/>
<feGaussianBlur stdDeviation="11" result="effect1_foregroundBlur_1993_49204"/>
</filter>
<filter id="filter3_f_1993_49204" x="171.375" y="181.773" width="52.125" height="46.4766" filterUnits="userSpaceOnUse" color-interpolation-filters="sRGB">
<feFlood flood-opacity="0" result="BackgroundImageFix"/>
<feBlend mode="normal" in="SourceGraphic" in2="BackgroundImageFix" result="shape"/>
<feGaussianBlur stdDeviation="11" result="effect1_foregroundBlur_1993_49204"/>
</filter>
<linearGradient id="paint0_linear_1993_49204" x1="173.772" y1="204.062" x2="73.4068" y2="204.062" gradientUnits="userSpaceOnUse">
<stop stop-color="#B2CAF4" stop-opacity="0"/>
<stop offset="1" stop-color="#81BAFF"/>
</linearGradient>
<linearGradient id="paint1_linear_1993_49204" x1="50.2" y1="140.244" x2="45.6891" y2="153.545" gradientUnits="userSpaceOnUse">
<stop stop-color="#EDF5FF"/>
<stop offset="1" stop-color="#A1B6CC"/>
</linearGradient>
<linearGradient id="paint2_linear_1993_49204" x1="42.674" y1="137.068" x2="47.3141" y2="153.633" gradientUnits="userSpaceOnUse">
<stop stop-color="#EEF4FF"/>
<stop offset="1" stop-color="#A1B6CC"/>
</linearGradient>
<linearGradient id="paint3_linear_1993_49204" x1="68.8827" y1="56.875" x2="68.8827" y2="19.0362" gradientUnits="userSpaceOnUse">
<stop stop-color="#F7F8F9"/>
<stop offset="1" stop-color="#D5E4F8"/>
</linearGradient>
<linearGradient id="paint4_linear_1993_49204" x1="52.4543" y1="184.931" x2="52.4543" y2="161.815" gradientUnits="userSpaceOnUse">
<stop stop-color="#F2F4F9" stop-opacity="0"/>
<stop offset="1" stop-color="#E7EEFF"/>
</linearGradient>
<linearGradient id="paint5_linear_1993_49204" x1="109.116" y1="184.906" x2="109.116" y2="153.429" gradientUnits="userSpaceOnUse">
<stop stop-color="#F2F4F9" stop-opacity="0"/>
<stop offset="1" stop-color="#E7EEFF"/>
</linearGradient>
<linearGradient id="paint6_linear_1993_49204" x1="175.902" y1="185" x2="175.902" y2="159.609" gradientUnits="userSpaceOnUse">
<stop offset="0.00290329" stop-color="#F2F4F9" stop-opacity="0"/>
<stop offset="0.979756" stop-color="#EAF0FF"/>
</linearGradient>
<linearGradient id="paint7_linear_1993_49204" x1="187.96" y1="127.466" x2="184.522" y2="136.911" gradientUnits="userSpaceOnUse">
<stop stop-color="#EDF5FF"/>
<stop offset="1" stop-color="#A1B6CC"/>
</linearGradient>
<linearGradient id="paint8_linear_1993_49204" x1="181.726" y1="125.39" x2="185.297" y2="136.953" gradientUnits="userSpaceOnUse">
<stop stop-color="#EEF4FF"/>
<stop offset="1" stop-color="#A1B6CC"/>
</linearGradient>
<linearGradient id="paint9_linear_1993_49204" x1="199.86" y1="187.834" x2="194.033" y2="203.819" gradientUnits="userSpaceOnUse">
<stop stop-color="#EDF5FF"/>
<stop offset="1" stop-color="#A1B6CC"/>
</linearGradient>
<linearGradient id="paint10_linear_1993_49204" x1="189.464" y1="184.226" x2="195.578" y2="203.878" gradientUnits="userSpaceOnUse">
<stop stop-color="#EEF4FF"/>
<stop offset="1" stop-color="#A1B6CC"/>
</linearGradient>
<linearGradient id="paint11_linear_1993_49204" x1="121.022" y1="76.25" x2="121.022" y2="185.547" gradientUnits="userSpaceOnUse">
<stop stop-color="#EFF5FF"/>
<stop offset="1" stop-color="#CCD8EB"/>
</linearGradient>
<linearGradient id="paint12_linear_1993_49204" x1="121.022" y1="77.5" x2="121.022" y2="186.797" gradientUnits="userSpaceOnUse">
<stop stop-color="#E8EFFB"/>
<stop offset="1" stop-color="#CCD8EB"/>
</linearGradient>
<linearGradient id="paint13_linear_1993_49204" x1="121.291" y1="81.5072" x2="121.291" y2="180.188" gradientUnits="userSpaceOnUse">
<stop stop-color="#DCE5F4"/>
<stop offset="1" stop-color="white" stop-opacity="0.0974377"/>
</linearGradient>
<linearGradient id="paint14_linear_1993_49204" x1="121.291" y1="82.7517" x2="121.291" y2="180.188" gradientUnits="userSpaceOnUse">
<stop stop-color="white"/>
<stop offset="1" stop-color="white" stop-opacity="0.0974377"/>
</linearGradient>
<linearGradient id="paint15_linear_1993_49204" x1="157.392" y1="146.867" x2="99.1344" y2="145.842" gradientUnits="userSpaceOnUse">
<stop stop-color="#E2EAF8"/>
<stop offset="1" stop-color="#B4C4DC"/>
</linearGradient>
<linearGradient id="paint16_linear_1993_49204" x1="146.779" y1="133.491" x2="155.048" y2="186.08" gradientUnits="userSpaceOnUse">
<stop stop-color="#F6FAFF"/>
<stop offset="1" stop-color="#AABCD6"/>
</linearGradient>
<linearGradient id="paint17_linear_1993_49204" x1="155.048" y1="132.719" x2="155.048" y2="187.33" gradientUnits="userSpaceOnUse">
<stop stop-color="#E6F1FD"/>
<stop offset="1" stop-color="#AABCD6"/>
</linearGradient>
<linearGradient id="paint18_linear_1993_49204" x1="154.414" y1="124.514" x2="150.848" y2="188.541" gradientUnits="userSpaceOnUse">
<stop stop-color="#ABBDD7"/>
<stop offset="1" stop-color="#EBF5FF"/>
</linearGradient>
<linearGradient id="paint19_linear_1993_49204" x1="146.036" y1="149.84" x2="163.978" y2="167.781" gradientUnits="userSpaceOnUse">
<stop stop-color="white"/>
<stop offset="1" stop-color="white" stop-opacity="0.477764"/>
</linearGradient>
</defs>
</svg>
