<svg width="17" height="17" viewBox="0 0 17 17" fill="none" xmlns="http://www.w3.org/2000/svg">
<path d="M14.7188 8.53125C14.7188 12.1211 11.8086 15.0312 8.21875 15.0312C4.6289 15.0312 1.71875 12.1211 1.71875 8.53125C1.71875 4.9414 4.6289 2.03125 8.21875 2.03125C11.8086 2.03125 14.7188 4.9414 14.7188 8.53125Z" stroke="#FF9900"/>
<path fill-rule="evenodd" clip-rule="evenodd" d="M8.72422 10.4148C8.939 10.4148 9.11311 10.5889 9.11311 10.8036V11.8148C9.11311 12.0295 8.939 12.2036 8.72422 12.2036H7.71311C7.49833 12.2036 7.32422 12.0295 7.32422 11.8148V10.8036C7.32422 10.5889 7.49833 10.4148 7.71311 10.4148H8.72422ZM8.72422 4.70312C8.939 4.70312 9.11311 4.87724 9.11311 5.09201V9.18327C9.11311 9.39805 8.939 9.57216 8.72422 9.57216H7.71311C7.49833 9.57216 7.32422 9.39805 7.32422 9.18327V5.09201C7.32422 4.87724 7.49833 4.70312 7.71311 4.70312H8.72422Z" fill="#FF9900"/>
</svg>
