<svg width="400" height="286" viewBox="0 0 400 286" fill="none" xmlns="http://www.w3.org/2000/svg">
<path d="M33.4464 257.978C29.0154 240.131 38.6058 221.756 55.3061 215.319C71.1728 209.203 89.6433 215.334 98.9414 230.098C104.215 225.736 112.932 219.838 124.921 216.998C154.365 210.024 178.431 227.443 182.429 230.434C187.768 224.388 199.922 212.433 219.086 207.593C258.182 197.718 289.617 226.756 292.064 229.091C306.291 210.688 331.711 206.501 349.235 218.006C363.961 227.674 370.915 246.979 365.714 265.368C254.958 262.905 144.202 260.442 33.4464 257.978Z" fill="white"/>
<path d="M365.719 265.603H365.714L33.4463 258.214C33.3945 258.212 33.3445 258.194 33.3041 258.162C33.2636 258.13 33.2349 258.085 33.2225 258.035C31.0736 249.361 32.1484 240.203 36.2473 232.262C40.1304 224.579 46.6687 218.563 54.6517 215.326C62.6348 212.089 71.5218 211.85 79.6673 214.654C87.6413 217.346 94.4604 222.669 99.0025 229.746C106.786 223.357 115.488 218.991 124.871 216.769C152.604 210.2 175.702 225.142 182.401 230.115C189.485 222.137 201.554 211.779 219.033 207.364C228.073 205.093 237.484 204.705 246.681 206.225C254.258 207.448 261.911 209.913 269.426 213.551C282.004 219.638 290.444 227.246 292.042 228.741C298.81 220.043 308.534 214.123 319.375 212.101C330.093 210.119 340.745 212.147 349.37 217.809C356.57 222.536 362.183 229.826 365.175 238.338C368.233 247.072 368.503 256.538 365.946 265.432C365.932 265.481 365.902 265.525 365.861 265.556C365.82 265.587 365.77 265.603 365.719 265.603ZM33.6374 257.747L365.541 265.128C370.553 247.129 363.813 227.854 349.111 218.202C331.135 206.401 306.162 211.247 292.255 229.234C292.235 229.261 292.21 229.282 292.18 229.298C292.151 229.313 292.119 229.323 292.086 229.325C292.053 229.328 292.02 229.323 291.989 229.312C291.958 229.301 291.93 229.284 291.906 229.261C290.969 228.366 282.371 220.34 269.221 213.975C252.284 205.777 235.437 203.707 219.149 207.821C201.668 212.236 189.631 222.64 182.611 230.59C182.571 230.634 182.517 230.662 182.458 230.668C182.399 230.674 182.34 230.658 182.292 230.623C175.871 225.816 152.759 210.648 124.98 217.227C115.585 219.453 106.876 223.844 99.0968 230.279C99.071 230.301 99.0409 230.316 99.0085 230.325C98.9761 230.334 98.9422 230.336 98.9091 230.331C98.8759 230.325 98.8443 230.313 98.8163 230.294C98.7883 230.276 98.7646 230.252 98.7467 230.223C89.5284 215.585 71.2971 209.409 55.3959 215.538C38.6776 221.982 29.3483 240.104 33.6374 257.747Z" fill="#1D2129"/>
<path d="M199.999 285.765C310.325 285.765 399.763 277.042 399.763 266.282C399.763 255.522 310.325 246.8 199.999 246.8C89.6718 246.8 0.234375 255.522 0.234375 266.282C0.234375 277.042 89.6718 285.765 199.999 285.765Z" fill="#F0F7FF"/>
<path d="M200 286C146.634 286 96.4604 283.973 58.7226 280.292C40.3665 278.502 25.9525 276.417 15.8813 274.095C5.34322 271.665 0 269.036 0 266.282C0 263.527 5.34322 260.899 15.8813 258.469C25.9525 256.147 40.3664 254.062 58.7226 252.271C96.4603 248.591 146.634 246.564 200 246.564C253.366 246.564 303.54 248.591 341.277 252.271C359.634 254.061 374.048 256.147 384.119 258.469C394.657 260.899 400 263.527 400 266.282C400 269.036 394.657 271.665 384.119 274.095C374.048 276.417 359.634 278.502 341.277 280.292C303.54 283.973 253.366 286 200 286ZM200 247.035C146.648 247.035 96.4914 249.061 58.7684 252.74C21.72 256.354 0.471759 261.289 0.471759 266.282C0.471759 271.274 21.72 276.21 58.7684 279.823C96.4915 283.503 146.649 285.529 200 285.529C253.351 285.529 303.509 283.503 341.232 279.823C378.28 276.21 399.528 271.274 399.528 266.282C399.528 261.289 378.28 256.354 341.232 252.74C303.509 249.061 253.352 247.035 200 247.035Z" fill="#1D2129"/>
<path d="M68.1693 195.543L47.2344 262.808C47.2344 262.808 52.7834 265.579 55.5579 262.808C67.4126 225.27 75.7361 195.543 75.7361 195.543H68.1693Z" fill="white"/>
<path d="M52.1606 264.283C49.7049 264.283 47.2831 263.095 47.1304 263.019C47.0804 262.994 47.0408 262.952 47.0189 262.9C46.997 262.849 46.994 262.791 47.0106 262.738L67.9455 195.473C67.9604 195.425 67.9904 195.383 68.0309 195.354C68.0714 195.324 68.1204 195.308 68.1708 195.308H75.7377C75.7741 195.308 75.81 195.316 75.8426 195.332C75.8752 195.348 75.9036 195.372 75.9256 195.401C75.9476 195.43 75.9626 195.463 75.9694 195.499C75.9762 195.535 75.9746 195.572 75.9648 195.607C75.8816 195.904 67.5047 225.767 55.7843 262.879C55.773 262.915 55.753 262.948 55.7262 262.974C54.7425 263.957 53.4469 264.283 52.1606 264.283ZM47.5222 262.682C48.4796 263.114 52.9923 264.966 55.3521 262.681C66.4332 227.591 74.5205 198.996 75.4265 195.779H68.3444L47.5222 262.682Z" fill="#1D2129"/>
<path d="M136.778 195.543L157.713 262.808C157.713 262.808 152.164 265.579 149.389 262.808C137.534 225.27 129.211 195.543 129.211 195.543H136.778Z" fill="white"/>
<path d="M152.79 264.283C151.503 264.283 150.208 263.957 149.224 262.974C149.197 262.948 149.177 262.915 149.166 262.879C137.445 225.767 129.068 195.904 128.985 195.607C128.975 195.572 128.974 195.535 128.981 195.499C128.987 195.463 129.002 195.43 129.024 195.401C129.046 195.372 129.075 195.348 129.108 195.332C129.14 195.316 129.176 195.308 129.212 195.308H136.779C136.83 195.308 136.879 195.324 136.919 195.354C136.96 195.383 136.99 195.425 137.005 195.473L157.939 262.738C157.956 262.791 157.953 262.849 157.931 262.9C157.909 262.952 157.87 262.994 157.82 263.019C157.667 263.095 155.245 264.283 152.79 264.283ZM149.598 262.681C151.958 264.966 156.471 263.114 157.428 262.682L136.606 195.779H129.524C130.43 198.996 138.517 227.591 149.598 262.681Z" fill="#1D2129"/>
<path d="M105.755 265.453C103.107 267.663 100.614 268.968 98.9453 265.453V195.543H105.755V265.453Z" fill="white"/>
<path d="M101.604 267.863C101.421 267.863 101.237 267.844 101.058 267.805C100.115 267.598 99.3545 266.862 98.7336 265.554C98.7187 265.522 98.7109 265.488 98.7109 265.453V195.543C98.7109 195.512 98.717 195.482 98.7289 195.453C98.7407 195.424 98.7581 195.398 98.78 195.377C98.8019 195.355 98.8279 195.337 98.8565 195.326C98.8852 195.314 98.9158 195.308 98.9468 195.308H105.757C105.788 195.308 105.819 195.314 105.847 195.326C105.876 195.337 105.902 195.355 105.924 195.377C105.946 195.398 105.963 195.424 105.975 195.453C105.987 195.482 105.993 195.512 105.993 195.543V265.453C105.993 265.488 105.985 265.522 105.971 265.553C105.956 265.584 105.935 265.612 105.908 265.634C104.565 266.756 103.029 267.863 101.604 267.863ZM99.1827 265.4C99.732 266.537 100.379 267.174 101.159 267.345C102.51 267.64 104.188 266.447 105.521 265.343V195.779H99.1827V265.4Z" fill="#1D2129"/>
<path d="M134.833 187.681H67.5724C64.5078 187.681 62.0234 190.162 62.0234 193.223V193.223C62.0234 196.284 64.5078 198.766 67.5724 198.766H134.833C137.898 198.766 140.382 196.284 140.382 193.223C140.382 190.162 137.898 187.681 134.833 187.681Z" fill="white"/>
<path d="M134.835 199.001H67.574C66.0397 199.001 64.5683 198.392 63.4834 197.309C62.3985 196.225 61.7891 194.755 61.7891 193.223C61.7891 191.69 62.3985 190.221 63.4834 189.137C64.5683 188.054 66.0397 187.445 67.574 187.445H134.835C136.369 187.445 137.84 188.054 138.925 189.137C140.01 190.221 140.62 191.69 140.62 193.223C140.62 194.755 140.01 196.225 138.925 197.309C137.84 198.392 136.369 199.001 134.835 199.001ZM67.574 187.916C66.1648 187.916 64.8134 188.475 63.817 189.47C62.8206 190.466 62.2608 191.815 62.2608 193.223C62.2608 194.63 62.8206 195.98 63.817 196.975C64.8134 197.971 66.1648 198.53 67.574 198.53H134.835C136.244 198.53 137.595 197.971 138.592 196.975C139.588 195.98 140.148 194.63 140.148 193.223C140.148 191.815 139.588 190.466 138.592 189.47C137.595 188.475 136.244 187.916 134.835 187.916H67.574Z" fill="#1D2129"/>
<path d="M252.821 246.904C251.028 250.238 219.432 254.17 213.601 252.627C212.77 252.37 212.024 251.891 211.445 251.242C217.024 251.442 234.55 251.447 252.708 244.939C253.08 245.63 253.146 246.299 252.821 246.904Z" fill="white"/>
<path d="M217.917 253.212C216.013 253.212 214.477 253.104 213.535 252.855C212.661 252.587 211.878 252.086 211.269 251.406C211.237 251.372 211.215 251.329 211.207 251.283C211.199 251.237 211.204 251.189 211.224 251.146C211.24 251.101 211.271 251.064 211.312 251.038C211.352 251.013 211.4 251.002 211.448 251.007C216.485 251.187 234.342 251.269 252.622 244.718C252.675 244.699 252.733 244.7 252.786 244.72C252.839 244.74 252.882 244.778 252.909 244.828C253.338 245.622 253.376 246.359 253.022 247.016V247.016C251.773 249.34 238.721 251.287 234.751 251.828C229.125 252.595 222.471 253.212 217.917 253.212ZM212.05 251.497C212.509 251.916 213.058 252.225 213.655 252.399C216.298 253.099 225.144 252.662 234.687 251.361C244.824 249.979 251.858 248.186 252.607 246.793V246.793C252.729 246.55 252.791 246.282 252.787 246.01C252.783 245.738 252.713 245.471 252.584 245.232C234.98 251.496 217.807 251.655 212.05 251.497Z" fill="#1D2129"/>
<path d="M252.702 244.94C234.545 251.447 217.019 251.442 211.44 251.242C206.944 246.605 204.406 232.738 204.406 232.738L217.809 230.295C217.809 230.295 220.066 232.802 220.689 234.35C221.309 235.9 229.287 237.855 236.908 238.077C243.142 238.258 251.028 241.823 252.702 244.94Z" fill="#1D2129"/>
<path d="M214.585 251.53C213.266 251.53 212.202 251.505 211.433 251.477C211.372 251.475 211.315 251.45 211.272 251.406C206.778 246.771 204.28 233.349 204.176 232.78C204.17 232.75 204.171 232.719 204.177 232.688C204.184 232.658 204.196 232.629 204.214 232.604C204.231 232.579 204.254 232.557 204.28 232.54C204.306 232.523 204.335 232.512 204.365 232.506L217.768 230.063C217.808 230.056 217.848 230.059 217.887 230.072C217.925 230.085 217.959 230.107 217.986 230.137C218.079 230.241 220.278 232.693 220.909 234.262C221.46 235.638 229.321 237.621 236.916 237.841C243.076 238.02 251.148 241.546 252.912 244.828C252.928 244.858 252.937 244.891 252.939 244.925C252.942 244.959 252.936 244.993 252.924 245.024C252.912 245.056 252.893 245.084 252.869 245.108C252.845 245.132 252.816 245.15 252.784 245.161C237.214 250.741 221.949 251.53 214.585 251.53ZM211.546 251.01C216.685 251.188 234.285 251.227 252.357 244.813C250.422 241.774 242.663 238.48 236.903 238.312C229.305 238.091 221.166 236.172 220.472 234.437C219.94 233.115 218.14 231.025 217.722 230.55L204.684 232.927C205.039 234.747 207.506 246.743 211.546 251.01Z" fill="#1D2129"/>
<path d="M167.242 129.943C167.242 129.943 183.099 120.264 191.556 140.678C198.413 157.23 220.803 233.77 220.803 233.77C220.803 233.77 212.871 239.742 204.414 237.982C194.195 227.776 167.242 165.316 167.242 165.316V129.943Z" fill="#1664FF"/>
<path d="M207.591 238.538C206.505 238.541 205.423 238.432 204.36 238.213C204.315 238.204 204.273 238.181 204.241 238.149C194.107 228.027 167.289 166.035 167.019 165.41C167.007 165.38 167 165.348 167 165.316V129.943C167 129.902 167.01 129.863 167.03 129.827C167.05 129.792 167.078 129.763 167.113 129.742C167.176 129.703 173.516 125.907 180.275 128.106C185.124 129.684 188.99 133.883 191.768 140.587C198.551 156.962 220.8 232.939 221.024 233.704C221.037 233.75 221.036 233.799 221.021 233.844C221.006 233.89 220.977 233.929 220.939 233.958C220.869 234.011 214.76 238.538 207.591 238.538ZM204.525 237.766C212.166 239.318 219.464 234.426 220.524 233.676C219.371 229.744 197.956 156.757 191.332 140.768C188.61 134.196 184.84 130.087 180.129 128.554C174.062 126.58 168.34 129.589 167.472 130.078V165.268C168.323 167.236 194.531 227.669 204.525 237.766Z" fill="#1D2129"/>
<path d="M154.178 264.035C153.829 264.843 153.293 265.354 152.552 265.446C148.795 265.915 127.299 242.452 125.186 236.809C124.808 235.806 124.912 234.557 125.339 233.181C127.658 237.933 132.691 246.745 140.81 253.518C148.212 259.695 151.366 262.914 154.178 264.035Z" fill="white"/>
<path d="M152.444 265.688C149.656 265.688 140.774 256.452 138.081 253.581C132.576 247.711 126.123 239.985 124.965 236.892C124.593 235.902 124.643 234.629 125.114 233.111C125.128 233.066 125.155 233.026 125.192 232.997C125.229 232.967 125.274 232.95 125.321 232.946C125.368 232.942 125.415 232.953 125.457 232.976C125.498 233 125.531 233.035 125.551 233.078C127.826 237.74 132.854 246.573 140.962 253.337C143.03 255.063 144.744 256.539 146.256 257.841C150.137 261.182 152.275 263.022 154.265 263.816C154.294 263.828 154.321 263.845 154.344 263.867C154.366 263.889 154.384 263.916 154.396 263.945C154.408 263.974 154.414 264.005 154.414 264.037C154.413 264.068 154.407 264.099 154.394 264.128C153.998 265.045 153.371 265.582 152.582 265.68C152.536 265.686 152.49 265.688 152.444 265.688ZM125.401 233.838C125.118 234.993 125.119 235.963 125.407 236.726C126.365 239.284 131.84 246.237 138.425 253.259C145.419 260.716 150.954 265.404 152.523 265.212C153.085 265.142 153.534 264.788 153.859 264.158C151.864 263.29 149.722 261.446 145.948 258.197C144.437 256.897 142.725 255.422 140.659 253.699C132.795 247.138 127.809 238.655 125.401 233.838Z" fill="#1D2129"/>
<path d="M154.182 264.035C151.371 262.914 148.217 259.695 140.815 253.518C132.696 246.745 127.662 237.933 125.344 233.181C127.304 226.837 136.114 217.815 136.114 217.815L145.863 227.317C145.863 227.317 145.122 230.608 144.216 232.01C143.313 233.412 146.332 241.043 150.559 247.378C153.956 252.467 155.609 260.734 154.182 264.035Z" fill="#1D2129"/>
<path d="M154.184 264.27C154.154 264.271 154.124 264.265 154.096 264.254C152.033 263.431 149.874 261.572 145.954 258.197C144.443 256.897 142.731 255.422 140.665 253.699C132.49 246.878 127.425 237.981 125.133 233.284C125.107 233.23 125.102 233.169 125.12 233.111C127.074 226.785 135.585 218.021 135.947 217.651C135.99 217.606 136.05 217.58 136.113 217.58C136.175 217.581 136.234 217.605 136.28 217.647L146.029 227.148C146.058 227.176 146.079 227.211 146.09 227.25C146.102 227.289 146.103 227.329 146.094 227.369C146.064 227.505 145.334 230.717 144.416 232.138C143.614 233.383 146.544 240.934 150.757 247.248C154.108 252.268 155.913 260.63 154.4 264.128C154.382 264.171 154.352 264.207 154.313 264.232C154.275 264.257 154.23 264.271 154.184 264.27ZM125.598 233.162C127.893 237.846 132.908 246.613 140.968 253.337C143.036 255.063 144.75 256.539 146.262 257.841C150.002 261.06 152.124 262.887 154.054 263.725C155.324 260.277 153.515 252.23 150.364 247.509C146.15 241.193 143.008 233.453 144.02 231.883C144.793 230.685 145.458 228.008 145.604 227.393L136.121 218.15C134.915 219.414 127.423 227.424 125.598 233.162H125.598Z" fill="#1D2129"/>
<path d="M177.337 100.311C177.337 100.311 183.471 93.0817 188.933 92.3778C194.395 91.6739 198.245 100.511 198.069 101.039C197.893 101.567 195.232 102.072 193.529 98.2001C192.413 102.776 188.496 99.6654 185.971 98.2576C184.059 100.58 182.212 103.185 182.212 103.185C182.212 103.185 176.985 102.129 177.337 100.311Z" fill="white"/>
<path d="M182.214 103.421C182.198 103.421 182.182 103.419 182.167 103.416C181.608 103.303 176.722 102.256 177.108 100.266C177.115 100.226 177.133 100.189 177.159 100.158C177.412 99.8604 183.415 92.8516 188.904 92.1441C191.071 91.8653 193.282 93.0094 195.297 95.454C197.129 97.6775 198.449 100.652 198.295 101.114C198.198 101.404 197.791 101.607 197.259 101.632C196.722 101.656 194.961 101.514 193.583 98.8566C193.256 99.7845 192.759 100.392 192.101 100.666C190.593 101.295 188.612 100.105 186.864 99.0545C186.572 98.8792 186.294 98.7117 186.029 98.5603C184.189 100.811 182.424 103.296 182.406 103.321C182.384 103.352 182.355 103.377 182.322 103.394C182.289 103.412 182.251 103.421 182.214 103.421ZM177.562 100.413C177.433 101.636 180.728 102.621 182.111 102.923C182.506 102.372 184.133 100.122 185.79 98.1079C185.825 98.0653 185.874 98.0362 185.929 98.026C185.983 98.0157 186.039 98.0249 186.087 98.0518C186.409 98.2313 186.748 98.4349 187.107 98.6507C188.678 99.5938 190.632 100.768 191.92 100.231C192.573 99.9589 193.025 99.2763 193.301 98.1445C193.313 98.0967 193.34 98.0537 193.377 98.0215C193.414 97.9894 193.461 97.9698 193.51 97.9655C193.559 97.9612 193.608 97.9724 193.651 97.9975C193.693 98.0226 193.727 98.0603 193.747 98.1054C194.972 100.892 196.623 101.15 197.1 101.162C197.362 101.194 197.626 101.127 197.841 100.974C197.815 100.434 196.209 96.7406 193.708 94.4548C192.146 93.0274 190.55 92.4066 188.965 92.6116C183.893 93.2651 178.118 99.7744 177.562 100.413Z" fill="#1D2129"/>
<path d="M114.482 107.329C109.523 127.479 125.406 139.094 143.336 133.364C168.953 125.179 179.911 108.608 185.041 101.786C188.569 96.9467 178.086 95.2749 178.086 95.2749C178.086 95.2749 154.674 112.198 147.645 111.289C141.549 110.249 138.326 104.954 138.326 104.954L114.482 107.329Z" fill="white"/>
<path d="M134.299 135.064C128.541 135.064 123.312 133.196 119.456 129.6C113.843 124.365 111.994 116.436 114.249 107.273C114.264 107.213 114.303 107.161 114.356 107.129C114.409 107.096 114.473 107.087 114.534 107.102C114.595 107.116 114.647 107.155 114.679 107.208C114.712 107.261 114.722 107.325 114.707 107.386C112.495 116.375 114.295 124.142 119.778 129.255C125.473 134.566 134.252 136.018 143.261 133.14C167.212 125.487 178.43 110.317 183.821 103.027C184.188 102.531 184.53 102.07 184.848 101.645C185.511 100.736 185.688 99.8868 185.373 99.1248C184.376 96.7117 178.929 95.6637 178.14 95.5238C176.433 96.7529 155.712 111.559 148.219 111.56C148.015 111.56 147.812 111.548 147.61 111.523C141.471 110.475 138.154 105.13 138.121 105.076C138.105 105.05 138.094 105.02 138.089 104.99C138.084 104.959 138.086 104.928 138.093 104.898C138.1 104.868 138.114 104.84 138.132 104.815C138.15 104.79 138.173 104.769 138.2 104.752C138.226 104.736 138.256 104.726 138.286 104.721C138.317 104.716 138.348 104.718 138.378 104.725C138.408 104.732 138.437 104.745 138.462 104.764C138.487 104.782 138.508 104.805 138.524 104.831C138.555 104.883 141.767 110.048 147.681 111.057C154.53 111.942 177.71 95.2528 177.944 95.0839C177.969 95.0656 177.997 95.0525 178.027 95.0453C178.057 95.0382 178.089 95.0371 178.119 95.0423C178.385 95.0846 184.639 96.1124 185.809 98.9446C186.191 99.8688 185.996 100.871 185.228 101.925C184.907 102.351 184.566 102.812 184.201 103.307C178.78 110.637 167.501 125.889 143.404 133.589C140.464 134.547 137.392 135.045 134.299 135.064Z" fill="#1D2129"/>
<path d="M77.3828 161.267C77.3828 161.267 89.716 191.887 111.563 187.312C133.411 182.736 153.144 165.316 153.144 165.316L132.706 217.932C132.706 217.932 140.458 231.658 146.449 230.603C158.782 215.468 203.886 128.535 182.391 125.367C160.896 122.2 130.944 133.11 130.944 133.11L77.3828 161.267Z" fill="#1664FF"/>
<path d="M145.777 230.896C139.829 230.897 132.809 218.592 132.502 218.048C132.485 218.018 132.475 217.984 132.472 217.949C132.47 217.914 132.475 217.88 132.487 217.847L152.588 166.1C148.846 169.225 130.958 183.491 111.613 187.542C106.575 188.598 101.623 187.87 96.8972 185.381C93.1281 183.396 89.4952 180.292 86.0994 176.155C80.329 169.125 77.1965 161.432 77.1655 161.355C77.1437 161.301 77.1428 161.241 77.1629 161.186C77.183 161.131 77.2228 161.086 77.2744 161.059L130.836 132.902C130.845 132.897 130.855 132.893 130.865 132.889C131.165 132.78 161.12 121.995 182.427 125.134C184.84 125.49 186.539 126.891 187.475 129.299C191.51 139.673 180.618 166.594 173.766 181.718C163.847 203.611 151.959 224.216 146.633 230.751C146.597 230.795 146.547 230.825 146.491 230.834C146.255 230.876 146.017 230.896 145.777 230.896ZM132.968 217.912C133.669 219.122 140.837 231.212 146.323 230.385C151.658 223.796 163.468 203.305 173.336 181.524C180.157 166.467 191.008 139.683 187.036 129.47C186.165 127.231 184.591 125.929 182.358 125.6C161.356 122.506 131.849 133.035 131.041 133.327L77.685 161.375C78.2114 162.617 81.2564 169.514 86.4711 175.864C91.7332 182.272 100.349 189.42 111.516 187.081C133.053 182.571 152.792 165.314 152.989 165.14C153.029 165.105 153.079 165.084 153.132 165.081C153.184 165.078 153.237 165.093 153.28 165.123C153.323 165.153 153.355 165.197 153.371 165.248C153.386 165.298 153.384 165.352 153.365 165.402L132.968 217.912Z" fill="#1D2129"/>
<path d="M128.649 83.8362C126.484 84.8535 55.1789 112.345 75 164.082C77.1143 169.89 109.092 154.58 140.278 131.086C144.242 112.081 145.779 108.352 145.779 100.785C145.779 93.2183 136.418 80.1865 128.649 83.8362Z" fill="white"/>
<path d="M77.6655 165.549C77.1698 165.559 76.6753 165.499 76.1968 165.369C75.4697 165.154 74.993 164.748 74.7799 164.163C70.3998 152.73 70.1494 141.564 74.0371 130.978C77.1936 122.384 83.0861 114.122 91.5508 106.422C101.08 97.7542 114.015 89.7452 127.972 83.8707C128.268 83.746 128.465 83.6636 128.55 83.6231C130.949 82.4969 133.689 82.8344 136.474 84.6007C141.557 87.8234 146.016 95.3865 146.016 100.785C146.016 106.161 145.248 109.594 143.391 117.885C142.625 121.308 141.671 125.568 140.51 131.135C140.499 131.191 140.467 131.24 140.421 131.275C127.086 141.32 112.8 150.483 100.195 157.074C89.7221 162.55 81.7086 165.549 77.6655 165.549ZM131.465 83.4443C130.527 83.4422 129.6 83.649 128.751 84.0497C128.663 84.0911 128.461 84.1764 128.155 84.3048C114.246 90.1591 101.359 98.1375 91.8685 106.77C72.8888 124.035 67.2881 143.289 75.2219 163.998C75.3847 164.445 75.7469 164.745 76.3307 164.917C76.7722 165.036 77.2284 165.092 77.6855 165.083C86.0398 165.083 112.945 151.373 140.066 130.952C141.22 125.424 142.168 121.189 142.931 117.783C144.779 109.527 145.544 106.109 145.544 100.785C145.544 95.5243 141.188 88.1473 136.221 84.9985C134.592 83.9652 132.984 83.4443 131.465 83.4443Z" fill="#1D2129"/>
<path d="M176.22 92.4007C176.22 92.4007 183.385 82.8392 188.847 82.1353C194.309 81.4313 196.482 88.4118 196.306 88.9398C196.129 89.4677 193.817 89.8096 192.114 85.938C190.998 90.5135 187.379 91.7554 184.853 90.3476C182.942 92.6705 181.095 95.275 181.095 95.275C181.095 95.275 175.868 94.2191 176.22 92.4007Z" fill="white"/>
<path d="M181.096 95.5103C181.081 95.5102 181.065 95.5087 181.05 95.5057C180.491 95.3927 175.605 94.3461 175.99 92.3555C175.997 92.3205 176.012 92.2876 176.033 92.2591C176.328 91.8654 183.321 82.6096 188.819 81.9012C190.949 81.6277 192.887 82.4663 194.422 84.3292C195.932 86.1611 196.682 88.5624 196.531 89.0141C196.441 89.2835 196.099 89.4705 195.66 89.4908C195.175 89.5152 193.57 89.3569 192.174 86.6111C191.548 88.6093 190.373 90.063 188.821 90.7394C188.204 91.0135 187.533 91.1473 186.858 91.1311C186.182 91.1149 185.519 90.9491 184.915 90.6458C183.074 92.8975 181.307 95.3854 181.289 95.4109C181.267 95.4416 181.238 95.4667 181.205 95.484C181.171 95.5012 181.134 95.5103 181.096 95.5103ZM176.446 92.4956C176.302 93.7217 179.608 94.7103 180.994 95.0124C181.388 94.4621 183.015 92.2117 184.673 90.1978C184.708 90.1552 184.757 90.1262 184.811 90.1159C184.866 90.1057 184.922 90.1148 184.97 90.1417C185.526 90.4515 186.146 90.6277 186.782 90.6565C187.417 90.6853 188.051 90.5658 188.632 90.3075C190.202 89.6235 191.357 88.0519 191.887 85.882C191.898 85.8341 191.925 85.7911 191.962 85.759C192 85.7269 192.046 85.7073 192.095 85.703C192.144 85.6987 192.194 85.7099 192.236 85.735C192.278 85.7601 192.312 85.7978 192.332 85.8429C193.363 88.1879 194.68 89.0214 195.576 89.0214H195.596C195.918 89.0168 196.068 88.9032 196.084 88.8645C196.128 88.5647 195.409 85.9676 193.598 84.1157C192.241 82.7277 190.654 82.1391 188.879 82.3688C183.769 83.027 176.993 91.778 176.446 92.4956Z" fill="#1D2129"/>
<path d="M112.623 102.05C107.663 122.2 123.546 133.814 141.477 128.085C167.093 119.9 178.051 103.328 183.182 96.5068C186.71 91.6674 176.227 89.9956 176.227 89.9956C176.227 89.9956 152.814 106.919 145.785 106.01C139.69 104.97 136.467 99.6744 136.467 99.6744L112.623 102.05Z" fill="white"/>
<path d="M132.44 129.785C126.682 129.785 121.453 127.917 117.597 124.32C111.984 119.086 110.134 111.156 112.39 101.994C112.405 101.933 112.443 101.881 112.497 101.849C112.55 101.816 112.614 101.807 112.675 101.822C112.735 101.836 112.788 101.875 112.82 101.928C112.853 101.981 112.863 102.045 112.848 102.106C110.635 111.096 112.436 118.863 117.919 123.976C123.614 129.287 132.392 130.739 141.401 127.861C165.352 120.208 176.57 105.038 181.961 97.7475C182.328 97.252 182.67 96.7897 182.989 96.3652C183.652 95.4564 183.829 94.6075 183.514 93.8454C182.517 91.4324 177.07 90.3844 176.28 90.2445C174.573 91.4736 153.853 106.279 146.359 106.28C146.156 106.281 145.953 106.269 145.751 106.243C139.611 105.196 136.294 99.8507 136.261 99.7968C136.229 99.7434 136.219 99.6793 136.234 99.6186C136.248 99.5579 136.287 99.5056 136.34 99.4731C136.394 99.4406 136.458 99.4307 136.519 99.4455C136.579 99.4603 136.632 99.4986 136.664 99.552C136.696 99.604 139.907 104.769 145.821 105.777C152.67 106.657 175.851 89.9735 176.084 89.8046C176.109 89.7863 176.138 89.7732 176.168 89.766C176.198 89.7589 176.229 89.7578 176.26 89.7629C176.525 89.8053 182.779 90.833 183.95 93.6653C184.332 94.5895 184.136 95.5919 183.368 96.6455C183.048 97.0718 182.707 97.5331 182.341 98.0275C176.92 105.358 165.641 120.61 141.545 128.309C138.604 129.268 135.533 129.765 132.44 129.785Z" fill="#1D2129"/>
<path d="M133.326 84.2761C133.326 84.2761 140.814 79.7007 141.959 73.0135C143.104 66.3263 142.311 54.3598 154.909 55.5916C167.506 56.8235 160.283 84.3641 155.966 84.6281C151.649 84.892 149.183 83.3041 149.183 83.3041L143.457 97.5625C143.457 97.5625 132.885 92.1072 133.326 84.2761Z" fill="white"/>
<path d="M143.451 97.798C143.413 97.7981 143.376 97.7891 143.342 97.7718C142.905 97.5461 132.64 92.1556 133.084 84.2631C133.086 84.225 133.098 84.1881 133.117 84.1554C133.137 84.1227 133.164 84.0952 133.197 84.0753C133.271 84.03 140.607 79.4759 141.72 72.9737C141.887 72.0043 142.012 70.9234 142.144 69.7793C142.9 63.2393 143.934 54.2843 154.926 55.3571C159.752 55.829 162.336 60.1538 162.201 67.5346C162.06 75.3043 158.684 84.6975 155.974 84.8633C152.352 85.0844 150.027 84.0367 149.295 83.6437L143.67 97.6501C143.652 97.6938 143.622 97.7313 143.583 97.7576C143.544 97.784 143.498 97.7981 143.451 97.798ZM133.549 84.4096C133.264 91.3041 141.812 96.3826 143.33 97.2288L148.958 83.2165C148.971 83.1843 148.991 83.1553 149.016 83.1317C149.042 83.1081 149.072 83.0903 149.105 83.0798C149.138 83.0692 149.173 83.0661 149.208 83.0706C149.242 83.0752 149.275 83.0873 149.304 83.106C149.328 83.1214 151.766 84.6487 155.946 84.3931C158.21 84.2546 161.584 75.508 161.73 67.5261C161.805 63.414 161.014 56.4258 154.88 55.826C144.352 54.798 143.387 63.1342 142.613 69.8333C142.479 70.9842 142.354 72.0711 142.186 73.0533C141.111 79.3288 134.475 83.8119 133.549 84.4096Z" fill="#1D2129"/>
<path d="M141.166 72.1045C141.166 72.1045 142.184 74.9201 145.786 73.6296C149.388 72.3391 144.924 68.3503 146.569 66.0039C148.213 63.6575 150.68 64.3614 149.975 67.6463C150.21 69.9927 151.619 69.8754 151.854 67.2944C152.089 64.7134 151.15 61.7804 157.727 61.1938C164.305 60.6072 164.422 61.4284 167.241 56.1491C164.422 54.6239 160.781 53.2161 153.029 52.0429C145.277 50.8697 139.756 59.1994 141.166 72.1045Z" fill="#1D2129"/>
<path d="M144.03 74.203C143.373 74.212 142.727 74.0246 142.176 73.665C141.626 73.3054 141.195 72.7898 140.939 72.1843C140.933 72.1667 140.929 72.1484 140.927 72.1298C140.071 64.2994 141.694 57.7838 145.379 54.2535C146.374 53.2667 147.589 52.5304 148.924 52.1055C150.26 51.6806 151.677 51.5793 153.06 51.8101C161.176 53.0382 164.724 54.5216 167.349 55.9418C167.404 55.9714 167.445 56.0215 167.463 56.0811C167.481 56.1406 167.474 56.2049 167.445 56.2598C164.96 60.9142 164.412 60.952 160.15 61.2444C159.453 61.2923 158.664 61.3463 157.744 61.4285C152.264 61.9171 152.203 64.018 152.138 66.2424C152.128 66.5951 152.117 66.9597 152.085 67.3157C151.959 68.6957 151.488 69.555 150.855 69.5578H150.851C150.271 69.5578 149.854 68.8524 149.736 67.6698C149.733 67.6454 149.735 67.6208 149.74 67.5968C150.027 66.2601 149.777 65.2434 149.089 64.9436C148.404 64.6452 147.468 65.1265 146.758 66.1388C146.107 67.067 146.535 68.3462 146.949 69.5833C147.491 71.2067 148.106 73.0467 145.861 73.8512C145.276 74.073 144.656 74.192 144.03 74.203ZM141.392 72.0484C141.504 72.3265 142.511 74.5504 145.702 73.4076C147.425 72.7901 147.128 71.6089 146.501 69.7326C146.05 68.3848 145.584 66.991 146.371 65.8687C147.227 64.6484 148.367 64.1158 149.277 64.5117C150.19 64.9091 150.538 66.0841 150.209 67.6589C150.32 68.6987 150.66 69.0866 150.852 69.0866H150.852C151.084 69.0857 151.495 68.5924 151.615 67.2729C151.646 66.9314 151.656 66.5741 151.666 66.2288C151.734 63.8965 151.804 61.4851 157.702 60.9591C158.627 60.8767 159.419 60.8222 160.118 60.7744C164.256 60.4902 164.655 60.4628 166.918 56.2453C164.349 54.8793 160.822 53.4611 152.989 52.2758C151.678 52.057 150.334 52.1531 149.067 52.5561C147.801 52.9592 146.649 53.6576 145.706 54.5936C142.132 58.0171 140.561 64.3783 141.392 72.0484Z" fill="#1D2129"/>
<path d="M385.361 234.125C385.361 227.023 381.431 220.588 375.065 215.903C357.987 214.252 341.043 214.418 324.195 215.903C317.829 220.588 313.898 227.023 313.898 234.125C313.898 241.842 318.539 248.771 325.901 253.524C339.931 257.688 355.672 257.869 373.359 253.524C380.721 248.771 385.361 241.842 385.361 234.125Z" fill="white"/>
<path d="M348.518 256.934C340.843 256.974 333.202 255.902 325.835 253.75C325.814 253.743 325.793 253.734 325.775 253.722C318.078 248.753 313.664 241.61 313.664 234.125C313.664 227.184 317.355 220.645 324.057 215.713C324.091 215.687 324.133 215.671 324.176 215.668C342.096 214.088 358.75 214.089 375.089 215.668C375.132 215.672 375.172 215.688 375.206 215.713C381.908 220.645 385.599 227.184 385.599 234.125C385.599 241.61 381.185 248.753 373.488 253.722C373.466 253.736 373.442 253.746 373.417 253.752C364.783 255.873 356.465 256.934 348.518 256.934ZM326.002 253.307C340.205 257.516 356.104 257.515 373.266 253.304C380.804 248.425 385.127 241.437 385.127 234.125C385.127 227.356 381.524 220.968 374.979 216.131C358.71 214.563 342.126 214.563 324.283 216.131C317.739 220.968 314.136 227.356 314.136 234.125C314.136 241.438 318.461 248.428 326.002 253.307Z" fill="#1D2129"/>
<path d="M337.601 200.931C337.601 200.931 370.961 220.03 387.838 196.426C404.714 172.823 397.402 150.869 378.961 140.784C360.521 130.7 335.16 138.548 327.242 150.806C319.325 163.063 340.665 196.28 337.601 200.931Z" fill="#E8F3FF"/>
<path d="M364.057 208.463C361.471 208.452 358.891 208.218 356.346 207.763C345.975 205.952 337.563 201.184 337.479 201.136C337.451 201.12 337.427 201.099 337.408 201.073C337.389 201.047 337.375 201.018 337.367 200.987C337.36 200.955 337.359 200.923 337.364 200.891C337.37 200.859 337.382 200.829 337.4 200.802C338.504 199.126 336.038 193.001 333.182 185.909C328.238 173.63 322.085 158.348 327.039 150.678C331.024 144.509 339.27 139.466 349.098 137.188C359.864 134.692 370.508 135.896 379.07 140.578C388.329 145.642 394.603 153.564 396.738 162.886C399.177 173.535 396.164 185.181 388.025 196.564C384.143 201.993 379.064 205.61 372.927 207.315C370.036 208.098 367.052 208.484 364.057 208.463ZM337.915 200.839C339.249 201.568 347.033 205.661 356.439 207.301C365.902 208.95 378.997 208.379 387.641 196.29C395.699 185.02 398.686 173.505 396.278 162.991C394.174 153.802 387.982 145.989 378.843 140.991C370.383 136.365 359.857 135.177 349.204 137.647C339.493 139.898 331.356 144.865 327.436 150.934C322.614 158.399 328.975 174.198 333.62 185.733C336.534 192.971 338.859 198.743 337.915 200.839Z" fill="#1D2129"/>
<path d="M325.924 208.838C325.844 208.838 325.766 208.811 325.703 208.761C325.64 208.71 325.597 208.641 325.579 208.562C325.561 208.484 325.571 208.402 325.606 208.33C325.641 208.258 325.7 208.2 325.772 208.165C342.643 200.168 355.278 185.995 362.907 175.513C371.178 164.15 375.505 154.566 375.548 154.47C375.586 154.385 375.657 154.319 375.744 154.285C375.832 154.252 375.929 154.255 376.015 154.293C376.1 154.331 376.167 154.402 376.2 154.489C376.234 154.576 376.231 154.673 376.193 154.759C376.15 154.855 371.793 164.506 363.479 175.929C355.802 186.477 343.081 200.743 326.076 208.804C326.029 208.826 325.977 208.838 325.924 208.838Z" fill="#1D2129"/>
<path d="M387.099 163.24C387.052 163.24 387.007 163.227 386.969 163.201C386.892 163.15 379.271 158.191 372.651 161.291C372.62 161.306 372.585 161.314 372.55 161.313C372.515 161.313 372.48 161.305 372.448 161.29C372.417 161.274 372.389 161.252 372.367 161.225C372.345 161.197 372.329 161.165 372.321 161.131C370.58 153.649 362.748 146.387 362.67 146.315C362.624 146.273 362.596 146.214 362.594 146.151C362.591 146.089 362.614 146.028 362.656 145.982C362.698 145.937 362.757 145.909 362.819 145.906C362.882 145.904 362.943 145.926 362.989 145.968C363.068 146.04 370.814 153.221 372.713 160.746C379.511 157.779 387.152 162.757 387.229 162.808C387.272 162.836 387.304 162.877 387.321 162.925C387.338 162.972 387.339 163.024 387.325 163.073C387.31 163.121 387.28 163.164 387.239 163.194C387.199 163.224 387.149 163.24 387.099 163.24Z" fill="#1D2129"/>
<path d="M386.081 175.637C386.031 175.637 385.982 175.621 385.941 175.591C385.826 175.506 374.332 167.126 368.863 168.118C368.806 168.129 368.746 168.118 368.696 168.087C368.646 168.056 368.61 168.007 368.594 167.951C367.398 163.748 361.817 151.813 350.512 147.111C350.484 147.099 350.458 147.082 350.436 147.06C350.414 147.038 350.397 147.012 350.385 146.983C350.373 146.955 350.367 146.924 350.367 146.893C350.367 146.862 350.373 146.832 350.385 146.803C350.397 146.775 350.415 146.749 350.437 146.727C350.458 146.705 350.485 146.688 350.513 146.676C350.542 146.664 350.572 146.658 350.603 146.658C350.634 146.658 350.665 146.664 350.694 146.676C361.996 151.377 367.66 163.191 368.989 167.621C374.723 166.824 385.749 174.865 386.221 175.212C386.261 175.241 386.291 175.282 386.306 175.33C386.321 175.377 386.321 175.428 386.305 175.475C386.29 175.522 386.26 175.563 386.219 175.592C386.179 175.621 386.131 175.637 386.081 175.637V175.637Z" fill="#1D2129"/>
<path d="M390.593 187.083C390.542 187.083 390.493 187.066 390.453 187.036C390.282 186.909 373.252 174.376 364.343 175.278C364.312 175.282 364.279 175.278 364.249 175.269C364.218 175.259 364.19 175.243 364.166 175.223C364.141 175.202 364.122 175.176 364.108 175.147C364.094 175.119 364.086 175.087 364.084 175.055C363.977 172.799 361.337 167.762 356.659 162.87C352.722 158.754 346.156 153.442 337.233 151.512C337.203 151.505 337.174 151.493 337.149 151.475C337.123 151.457 337.101 151.435 337.085 151.409C337.068 151.383 337.056 151.354 337.051 151.323C337.045 151.293 337.046 151.261 337.052 151.231C337.059 151.201 337.071 151.172 337.089 151.147C337.107 151.121 337.129 151.099 337.155 151.083C337.181 151.066 337.211 151.055 337.241 151.049C337.272 151.044 337.303 151.044 337.333 151.051C346.373 153.007 353.018 158.381 357 162.545C361.651 167.408 364.266 172.302 364.536 174.789C373.679 174.1 390.036 186.141 390.734 186.658C390.773 186.687 390.803 186.729 390.818 186.776C390.833 186.823 390.833 186.874 390.817 186.921C390.801 186.968 390.771 187.009 390.731 187.038C390.691 187.067 390.642 187.083 390.593 187.083Z" fill="#1D2129"/>
<path d="M379.437 190.09C379.375 190.09 379.316 190.066 379.272 190.022C379.175 189.927 369.47 180.519 359.305 181.055C359.246 181.058 359.188 181.039 359.142 181.001C359.097 180.964 359.067 180.91 359.059 180.851C358.329 175.45 347.425 162.286 337.006 160.364C336.975 160.359 336.946 160.347 336.92 160.33C336.894 160.313 336.872 160.292 336.854 160.266C336.836 160.241 336.824 160.212 336.818 160.182C336.811 160.151 336.811 160.12 336.816 160.09C336.822 160.059 336.834 160.03 336.85 160.004C336.867 159.978 336.889 159.956 336.915 159.938C336.94 159.921 336.969 159.909 336.999 159.902C337.03 159.896 337.061 159.895 337.091 159.901C341.691 160.749 347.087 164.017 351.895 168.867C355.964 172.972 358.983 177.634 359.494 180.575C369.779 180.167 379.505 189.59 379.602 189.686C379.636 189.719 379.659 189.761 379.668 189.807C379.678 189.853 379.673 189.9 379.655 189.944C379.638 189.987 379.607 190.024 379.568 190.05C379.53 190.076 379.484 190.09 379.437 190.09Z" fill="#1D2129"/>
<path d="M373.177 197.308C373.145 197.308 373.113 197.301 373.083 197.288C373.053 197.275 373.027 197.257 373.005 197.233C372.899 197.121 362.381 186.019 354.078 187.479C354.045 187.484 354.01 187.483 353.977 187.474C353.944 187.465 353.913 187.449 353.887 187.428C353.861 187.406 353.839 187.379 353.825 187.348C353.81 187.317 353.802 187.283 353.802 187.249C353.732 181.141 346.383 173.463 337.071 169.77C337.013 169.747 336.966 169.702 336.941 169.644C336.916 169.587 336.915 169.522 336.939 169.464C336.962 169.406 337.007 169.359 337.064 169.335C337.122 169.31 337.187 169.309 337.245 169.332C346.585 173.036 353.985 180.732 354.266 186.972C362.763 185.741 372.917 196.45 373.349 196.911C373.38 196.944 373.401 196.986 373.409 197.032C373.417 197.077 373.411 197.124 373.393 197.166C373.375 197.208 373.345 197.244 373.306 197.269C373.268 197.294 373.223 197.308 373.177 197.308Z" fill="#1D2129"/>
<path d="M368.709 202.175C368.677 202.175 368.646 202.169 368.617 202.157C368.588 202.145 368.562 202.127 368.54 202.104C368.46 202.022 360.424 193.902 348.248 193.087C348.194 193.083 348.142 193.061 348.102 193.023C348.062 192.985 348.037 192.935 348.03 192.881C347.455 188.231 341.398 178.17 335.731 177.486C335.669 177.478 335.612 177.446 335.574 177.397C335.535 177.348 335.518 177.286 335.525 177.224C335.533 177.161 335.565 177.105 335.614 177.066C335.663 177.028 335.726 177.01 335.788 177.018C341.685 177.73 347.734 187.666 348.472 192.63C360.726 193.529 368.798 201.693 368.878 201.776C368.91 201.809 368.932 201.851 368.941 201.896C368.949 201.942 368.944 201.989 368.926 202.032C368.908 202.074 368.878 202.111 368.839 202.136C368.8 202.162 368.755 202.175 368.709 202.175Z" fill="#1D2129"/>
<path d="M355.391 207.627C355.391 207.627 372.133 192.586 381.167 199.159C390.202 205.733 401.179 218.023 391 230.905C380.822 243.787 365.454 246.075 355.898 233.055C346.342 220.035 358.306 215.669 355.391 207.627Z" fill="#1D2129"/>
<path d="M371.615 242C371.507 242 371.4 241.999 371.292 241.997C365.248 241.89 359.861 238.846 355.714 233.194C349.844 225.197 352.011 220.355 353.922 216.084C355.141 213.36 356.292 210.788 355.175 207.707C355.159 207.663 355.157 207.615 355.168 207.57C355.18 207.524 355.205 207.483 355.239 207.452C358.189 204.898 361.386 202.643 364.783 200.722C371.823 196.83 377.538 196.224 381.312 198.969C385.979 202.364 393.985 209.352 395.176 218.011C395.798 222.531 394.457 226.918 391.192 231.051C385.682 238.025 378.564 242 371.615 242ZM355.673 207.699C356.764 210.89 355.592 213.507 354.353 216.276C352.403 220.633 350.387 225.139 356.094 232.916C360.152 238.444 365.41 241.421 371.301 241.526C378.199 241.645 385.318 237.724 390.821 230.759C394.005 226.731 395.312 222.463 394.709 218.075C393.541 209.589 385.64 202.701 381.035 199.35C372.65 193.249 357.179 206.386 355.673 207.699Z" fill="#1D2129"/>
<path d="M384.762 230.866C384.7 230.866 384.638 230.849 384.583 230.818C384.529 230.786 384.484 230.74 384.454 230.686C382.125 226.784 379.388 223.141 376.287 219.819C371.604 214.807 364.173 208.685 355.367 207.979C344.161 207.081 342.453 207.765 342.227 207.906C342.186 207.973 342.124 208.024 342.051 208.052C341.978 208.081 341.898 208.084 341.823 208.061C341.748 208.039 341.682 207.992 341.637 207.928C341.591 207.865 341.568 207.788 341.571 207.71C341.575 207.648 341.592 207.588 341.62 207.534C341.648 207.479 341.688 207.431 341.735 207.392C342.544 206.674 347.405 206.632 355.424 207.275C364.461 207.999 372.045 214.24 376.816 219.348C379.95 222.709 382.717 226.394 385.071 230.34C385.101 230.393 385.116 230.454 385.116 230.516C385.115 230.577 385.099 230.638 385.067 230.691C385.036 230.744 384.992 230.788 384.938 230.819C384.885 230.85 384.824 230.866 384.762 230.866V230.866ZM342.278 207.737L342.278 207.737L342.278 207.737Z" fill="white"/>
<path d="M356.228 221.141C356.176 221.141 356.124 221.123 356.083 221.091C356.041 221.058 356.012 221.013 355.999 220.962C355.986 220.911 355.991 220.857 356.013 220.809C356.034 220.761 356.071 220.722 356.118 220.697C358.305 219.542 362.485 215.64 362.679 212.3C362.763 210.863 362.11 209.657 360.738 208.716C360.698 208.688 360.668 208.649 360.651 208.604C360.634 208.558 360.631 208.509 360.644 208.462C360.656 208.415 360.682 208.373 360.719 208.342C360.757 208.31 360.802 208.291 360.851 208.287C365.827 207.843 372.798 201.086 372.868 201.018C372.913 200.975 372.973 200.951 373.035 200.952C373.097 200.953 373.157 200.979 373.2 201.023C373.243 201.067 373.268 201.127 373.267 201.189C373.267 201.251 373.242 201.311 373.198 201.355C372.919 201.627 366.539 207.81 361.474 208.68C362.67 209.666 363.234 210.891 363.15 212.327C362.943 215.891 358.672 219.881 356.338 221.113C356.304 221.131 356.267 221.141 356.228 221.141Z" fill="white"/>
<path d="M355.947 226.722C355.89 226.722 355.835 226.702 355.793 226.665C355.75 226.628 355.722 226.577 355.713 226.521C355.705 226.465 355.717 226.408 355.748 226.36C355.778 226.312 355.824 226.277 355.878 226.261C360.996 224.715 364.958 221.226 366.476 216.927C367.314 214.554 367.211 212.34 366.194 210.852C366.171 210.818 366.157 210.778 366.154 210.736C366.151 210.695 366.159 210.653 366.177 210.616C366.195 210.578 366.223 210.547 366.258 210.523C366.293 210.5 366.333 210.487 366.375 210.485C375.629 209.933 381.026 203.24 381.079 203.172C381.098 203.148 381.122 203.128 381.149 203.113C381.176 203.097 381.206 203.088 381.236 203.084C381.267 203.081 381.298 203.083 381.328 203.091C381.358 203.1 381.386 203.114 381.41 203.133C381.435 203.152 381.455 203.176 381.47 203.203C381.485 203.23 381.495 203.26 381.498 203.29C381.502 203.321 381.5 203.352 381.491 203.382C381.483 203.412 381.469 203.44 381.449 203.464C381.395 203.532 376.027 210.201 366.796 210.928C367.698 212.524 367.748 214.739 366.921 217.083C365.353 221.524 361.276 225.123 356.015 226.712C355.993 226.719 355.97 226.722 355.947 226.722Z" fill="white"/>
<path d="M361.915 230.868C361.855 230.868 361.797 230.845 361.754 230.804C361.71 230.763 361.684 230.707 361.68 230.647C361.677 230.587 361.696 230.528 361.734 230.482C361.773 230.436 361.828 230.406 361.887 230.399C364.485 230.085 366.813 228.547 368.62 225.949C371.224 222.206 372.155 217.136 371.677 215.148C371.668 215.109 371.669 215.068 371.68 215.029C371.69 214.991 371.711 214.955 371.74 214.927C371.768 214.898 371.803 214.878 371.842 214.867C371.881 214.856 371.922 214.855 371.961 214.864C379.396 216.633 386.3 210.13 386.369 210.065C386.414 210.022 386.475 209.998 386.537 210C386.599 210.001 386.659 210.027 386.702 210.072C386.745 210.117 386.769 210.177 386.767 210.24C386.766 210.302 386.74 210.361 386.695 210.405C386.626 210.471 379.753 216.949 372.204 215.401C372.527 217.63 371.638 222.437 369.007 226.218C367.121 228.929 364.679 230.536 361.944 230.867C361.934 230.868 361.925 230.868 361.915 230.868Z" fill="white"/>
<path d="M364.4 237.918C364.343 237.918 364.288 237.897 364.245 237.859C364.202 237.822 364.174 237.77 364.166 237.713C364.159 237.657 364.172 237.599 364.203 237.552C364.235 237.504 364.283 237.47 364.338 237.455C374.944 234.564 376.066 226.219 376.736 221.232C376.791 220.83 376.842 220.45 376.894 220.098C376.899 220.065 376.912 220.032 376.931 220.004C376.949 219.975 376.974 219.951 377.003 219.933C377.032 219.915 377.065 219.904 377.098 219.899C377.132 219.895 377.167 219.898 377.199 219.909C381.112 221.155 389.804 217.669 389.892 217.634C389.95 217.61 390.014 217.611 390.072 217.635C390.13 217.66 390.175 217.706 390.199 217.764C390.222 217.822 390.222 217.887 390.197 217.944C390.173 218.002 390.127 218.047 390.069 218.071C389.714 218.214 381.492 221.51 377.322 220.434C377.283 220.707 377.244 220.994 377.204 221.295C376.518 226.397 375.37 234.937 364.462 237.909C364.442 237.915 364.421 237.918 364.4 237.918Z" fill="white"/>
<path d="M376.595 236.367C376.541 236.367 376.488 236.349 376.446 236.314C376.404 236.28 376.375 236.233 376.364 236.179C376.353 236.126 376.361 236.071 376.386 236.023C376.411 235.975 376.452 235.937 376.502 235.915C379.251 234.731 381.301 229.43 380.804 224.793C380.8 224.755 380.805 224.716 380.819 224.68C380.833 224.645 380.856 224.613 380.886 224.588C380.915 224.563 380.95 224.546 380.987 224.538C381.025 224.529 381.064 224.53 381.101 224.541C383.341 225.162 387.075 223.432 387.113 223.415C387.169 223.389 387.234 223.386 387.293 223.407C387.352 223.428 387.399 223.472 387.426 223.529C387.452 223.585 387.455 223.65 387.434 223.708C387.413 223.767 387.37 223.815 387.313 223.842C387.161 223.913 383.71 225.51 381.304 225.07C381.69 229.808 379.539 235.121 376.689 236.348C376.659 236.361 376.627 236.367 376.595 236.367Z" fill="white"/>
<path d="M319.898 202.999C319.898 202.999 325.063 184.998 319.75 178.342C314.437 171.686 283.312 158.782 271.635 181.187C259.957 203.593 282.482 226.584 296.806 219.698C311.129 212.812 314.477 203.977 319.898 202.999Z" fill="white"/>
<path d="M291.219 221.172C286.287 221.172 280.914 218.663 276.41 214.021C269.762 207.169 264.468 194.431 271.426 181.078C275.351 173.548 281.713 169.307 290.334 168.473C295.902 167.934 302.379 168.931 308.573 171.281C313.665 173.213 318.125 175.927 319.935 178.195C325.263 184.869 320.338 202.324 320.126 203.064C320.114 203.106 320.09 203.144 320.058 203.174C320.025 203.203 319.985 203.223 319.941 203.231C317.639 203.646 315.71 205.534 313.04 208.148C309.645 211.471 304.996 216.023 296.909 219.911C295.132 220.755 293.186 221.186 291.219 221.172ZM293.388 168.8C292.382 168.8 291.378 168.845 290.379 168.942C281.927 169.759 275.691 173.916 271.845 181.296C265.002 194.426 270.21 206.954 276.749 213.693C282.933 220.067 290.766 222.34 296.704 219.486C304.721 215.632 309.338 211.112 312.71 207.811C315.385 205.192 317.333 203.286 319.711 202.795C320.173 201.111 324.5 184.669 319.567 178.488C316.595 174.766 304.907 168.8 293.388 168.8Z" fill="#1D2129"/>
<path d="M327.116 209.447C327.046 209.447 326.978 209.427 326.92 209.388C326.861 209.349 326.816 209.294 326.789 209.229C326.762 209.168 325.007 205.436 311.263 198.234C296.655 190.579 279.007 187.367 271.085 190.922C271.043 190.941 270.997 190.952 270.951 190.953C270.904 190.955 270.858 190.947 270.814 190.93C270.771 190.914 270.731 190.889 270.697 190.857C270.663 190.825 270.636 190.787 270.617 190.745C270.598 190.702 270.587 190.657 270.586 190.61C270.585 190.564 270.593 190.518 270.609 190.474C270.626 190.431 270.651 190.391 270.682 190.357C270.714 190.324 270.753 190.296 270.795 190.277C274.826 188.468 281.311 188.271 289.054 189.721C296.909 191.248 304.501 193.905 311.592 197.609C325.737 205.021 327.382 208.805 327.445 208.963C327.466 209.016 327.474 209.074 327.468 209.132C327.462 209.189 327.442 209.244 327.409 209.292C327.377 209.34 327.333 209.379 327.282 209.406C327.231 209.433 327.174 209.447 327.116 209.447Z" fill="#1D2129"/>
<path d="M293.751 211.408C293.712 211.408 293.674 211.398 293.64 211.379C293.605 211.361 293.576 211.334 293.555 211.302C293.533 211.269 293.52 211.232 293.517 211.193C293.513 211.155 293.519 211.116 293.534 211.08C296.103 205.053 305.728 198.484 309.943 197.21C306.284 191.307 310.553 181.546 310.74 181.127C310.752 181.099 310.77 181.073 310.793 181.052C310.815 181.031 310.842 181.014 310.871 181.003C310.9 180.992 310.93 180.987 310.961 180.987C310.992 180.988 311.023 180.995 311.051 181.008C311.08 181.02 311.105 181.038 311.126 181.061C311.148 181.083 311.164 181.109 311.176 181.138C311.187 181.167 311.192 181.198 311.191 181.229C311.19 181.26 311.184 181.29 311.171 181.319C311.126 181.42 306.687 191.566 310.51 197.219C310.532 197.25 310.545 197.286 310.549 197.323C310.554 197.361 310.549 197.399 310.535 197.434C310.522 197.47 310.5 197.501 310.472 197.526C310.444 197.551 310.41 197.569 310.373 197.579C306.419 198.583 296.551 205.205 293.968 211.264C293.95 211.307 293.92 211.343 293.881 211.369C293.843 211.394 293.798 211.408 293.751 211.408Z" fill="#1D2129"/>
<path d="M283.236 216.048C283.23 216.048 283.225 216.048 283.219 216.047C283.156 216.043 283.098 216.013 283.057 215.966C283.016 215.919 282.996 215.857 283.001 215.795C283.737 205.761 298.118 195.175 302.102 193.734C298.838 183.768 303.296 175.309 303.342 175.224C303.357 175.196 303.377 175.172 303.401 175.153C303.425 175.133 303.452 175.118 303.482 175.11C303.512 175.101 303.543 175.098 303.574 175.101C303.605 175.104 303.634 175.113 303.662 175.128C303.689 175.142 303.713 175.162 303.733 175.186C303.752 175.21 303.767 175.238 303.776 175.267C303.785 175.297 303.788 175.328 303.785 175.359C303.782 175.39 303.772 175.42 303.758 175.447C303.713 175.531 299.286 183.944 302.624 193.807C302.634 193.837 302.638 193.869 302.636 193.901C302.634 193.932 302.625 193.963 302.61 193.991C302.596 194.019 302.576 194.044 302.551 194.064C302.527 194.084 302.499 194.099 302.468 194.109C300.869 194.588 296.405 197.319 291.9 201.66C288.273 205.155 283.866 210.451 283.471 215.829C283.467 215.889 283.44 215.944 283.397 215.985C283.353 216.025 283.296 216.048 283.236 216.048Z" fill="#1D2129"/>
<path d="M283.041 203.955C283.006 203.955 282.971 203.947 282.939 203.932C282.908 203.917 282.88 203.895 282.858 203.868C282.835 203.84 282.82 203.809 282.811 203.775C282.803 203.741 282.802 203.705 282.81 203.671C284.373 196.211 290.783 192.742 294.624 191.306C291.85 183.509 296.083 172.355 296.127 172.242C296.138 172.213 296.155 172.187 296.176 172.164C296.197 172.142 296.223 172.124 296.251 172.111C296.28 172.099 296.31 172.092 296.341 172.091C296.372 172.09 296.403 172.095 296.432 172.107C296.461 172.118 296.487 172.134 296.51 172.156C296.532 172.177 296.55 172.203 296.563 172.231C296.575 172.259 296.582 172.29 296.583 172.321C296.584 172.352 296.578 172.383 296.567 172.412C296.524 172.524 292.274 183.726 295.147 191.363C295.158 191.392 295.163 191.423 295.162 191.454C295.161 191.485 295.154 191.516 295.141 191.544C295.128 191.572 295.109 191.598 295.086 191.619C295.063 191.64 295.036 191.656 295.007 191.667C291.288 193.017 284.819 196.385 283.271 203.767C283.26 203.82 283.231 203.868 283.189 203.902C283.147 203.936 283.095 203.955 283.041 203.955Z" fill="#1D2129"/>
<path d="M276.244 205.076C276.184 205.076 276.127 205.054 276.083 205.013C276.04 204.973 276.013 204.918 276.009 204.858C275.52 198.453 282.533 191.046 287.437 189.462C282.741 184.394 286.373 174.161 286.533 173.72C286.543 173.691 286.56 173.664 286.581 173.641C286.601 173.618 286.627 173.6 286.655 173.587C286.683 173.574 286.713 173.566 286.744 173.565C286.775 173.563 286.806 173.568 286.835 173.579C286.864 173.589 286.891 173.605 286.914 173.626C286.937 173.647 286.955 173.672 286.968 173.7C286.982 173.728 286.989 173.759 286.99 173.79C286.992 173.82 286.987 173.851 286.977 173.88C286.938 173.988 283.148 184.662 288.044 189.408C288.074 189.437 288.095 189.474 288.107 189.514C288.118 189.554 288.118 189.596 288.108 189.637C288.097 189.677 288.076 189.714 288.047 189.743C288.017 189.773 287.98 189.794 287.94 189.805C283.285 191.044 276.002 198.575 276.479 204.823C276.481 204.853 276.478 204.884 276.468 204.914C276.458 204.943 276.443 204.97 276.423 204.994C276.403 205.017 276.378 205.037 276.35 205.051C276.323 205.065 276.293 205.073 276.262 205.075C276.256 205.076 276.25 205.076 276.244 205.076Z" fill="#1D2129"/>
<path d="M273.004 195.915C272.943 195.915 272.884 195.891 272.84 195.849C272.796 195.806 272.77 195.749 272.768 195.688C272.663 192.731 275.852 190.104 278.339 189.042C274.649 185.57 276.506 182.081 276.526 182.046C276.556 181.991 276.607 181.951 276.667 181.934C276.727 181.916 276.791 181.923 276.846 181.953C276.901 181.983 276.941 182.034 276.959 182.094C276.976 182.153 276.969 182.218 276.939 182.273C276.865 182.409 275.162 185.646 278.931 188.943C278.962 188.97 278.985 189.004 278.999 189.042C279.012 189.081 279.015 189.122 279.008 189.162C279.001 189.202 278.983 189.239 278.957 189.271C278.931 189.302 278.897 189.326 278.859 189.34C276.465 190.244 273.138 192.805 273.24 195.671C273.241 195.702 273.236 195.733 273.225 195.762C273.214 195.791 273.198 195.817 273.176 195.84C273.155 195.863 273.13 195.881 273.102 195.894C273.074 195.907 273.043 195.914 273.012 195.915C273.009 195.915 273.007 195.915 273.004 195.915Z" fill="#1D2129"/>
<path d="M339.2 205.891C339.2 205.891 317.451 197.018 310.9 206.654C304.349 216.29 297.91 232.225 312.453 241.289C326.995 250.353 342.893 247.187 347.679 231.037C352.466 214.887 339.177 214.814 339.2 205.891Z" fill="white"/>
<path d="M328.384 246.523C323.227 246.523 317.66 244.811 312.331 241.489C307.668 238.582 304.804 234.749 303.819 230.095C301.933 221.177 307.326 211.498 310.709 206.522C313.442 202.501 319.265 201.085 327.548 202.427C331.561 203.116 335.495 204.204 339.292 205.673C339.336 205.691 339.373 205.721 339.399 205.76C339.425 205.799 339.439 205.845 339.439 205.892C339.43 209.314 341.47 211.436 343.629 213.682C347.013 217.201 350.847 221.19 347.909 231.104C345.832 238.111 341.619 242.995 335.726 245.228C333.378 246.101 330.89 246.54 328.384 246.523ZM321.837 202.419C317.446 202.419 313.34 203.49 311.099 206.787C307.759 211.7 302.431 221.25 304.281 229.997C305.238 234.521 308.03 238.253 312.581 241.089C320.446 245.992 328.821 247.339 335.559 244.787C341.309 242.609 345.423 237.831 347.456 230.971C350.317 221.319 346.744 217.602 343.289 214.009C341.095 211.726 339.021 209.569 338.968 206.051C337.763 205.581 329.38 202.419 321.837 202.419Z" fill="#1D2129"/>
<path d="M318.448 239.059C318.43 239.059 318.411 239.057 318.393 239.054C318.3 239.04 318.217 238.989 318.162 238.914C318.107 238.838 318.084 238.743 318.098 238.651C318.966 233.878 320.352 229.214 322.231 224.741C325.084 217.98 330.322 209.165 339.069 205.564C341.189 204.692 343.032 204.606 344.548 205.311C345.774 205.915 346.731 206.954 347.232 208.225C347.946 208.573 350.823 210.279 349.977 214.792C349.969 214.837 349.952 214.881 349.926 214.92C349.901 214.959 349.868 214.993 349.83 215.019C349.792 215.045 349.748 215.064 349.703 215.073C349.657 215.083 349.61 215.084 349.565 215.075C349.519 215.067 349.475 215.049 349.436 215.024C349.397 214.998 349.364 214.965 349.337 214.927C349.311 214.889 349.293 214.846 349.283 214.8C349.274 214.755 349.273 214.708 349.282 214.662C350.128 210.144 346.959 208.867 346.823 208.815C346.774 208.796 346.729 208.766 346.693 208.727C346.656 208.689 346.629 208.643 346.613 208.592C346.607 208.575 346.003 206.762 344.241 205.948C342.914 205.334 341.264 205.425 339.338 206.218C330.814 209.727 325.685 218.377 322.883 225.016C321.025 229.435 319.656 234.044 318.797 238.759C318.784 238.843 318.742 238.919 318.678 238.973C318.614 239.028 318.532 239.058 318.448 239.059Z" fill="#1D2129"/>
<path d="M343.066 219.459C343.055 219.459 343.043 219.458 343.032 219.456C340.308 219.068 334.709 216.657 333.25 213.234C332.659 211.85 332.784 210.446 333.618 209.052C328.343 209.995 319.876 206.163 319.505 205.993C319.448 205.967 319.404 205.92 319.382 205.861C319.36 205.803 319.363 205.738 319.389 205.681C319.415 205.624 319.462 205.58 319.521 205.558C319.58 205.536 319.644 205.539 319.701 205.565C319.794 205.607 329.028 209.787 334.074 208.471C334.121 208.458 334.171 208.461 334.216 208.478C334.262 208.495 334.301 208.525 334.328 208.565C334.356 208.605 334.37 208.653 334.37 208.701C334.369 208.75 334.354 208.797 334.325 208.836C333.309 210.247 333.093 211.665 333.684 213.05C335.055 216.264 340.542 218.625 343.099 218.99C343.158 218.998 343.212 219.029 343.249 219.075C343.286 219.121 343.305 219.18 343.301 219.239C343.297 219.299 343.27 219.354 343.226 219.395C343.183 219.436 343.126 219.458 343.066 219.459Z" fill="#1D2129"/>
<path d="M344.27 224.866C338.959 224.866 334.14 222.799 331.226 219.229C329.583 217.215 328.852 215.018 329.181 213.133C319.857 215.679 312.227 211.019 312.15 210.97C312.097 210.937 312.059 210.885 312.045 210.824C312.031 210.763 312.042 210.699 312.075 210.646C312.108 210.593 312.161 210.555 312.222 210.541C312.282 210.527 312.346 210.538 312.399 210.571C312.476 210.618 320.141 215.293 329.428 212.573C329.468 212.562 329.51 212.561 329.551 212.571C329.591 212.581 329.628 212.601 329.658 212.63C329.688 212.659 329.71 212.696 329.721 212.736C329.732 212.776 329.733 212.819 329.722 212.859C329.248 214.68 329.929 216.894 331.592 218.931C334.602 222.621 339.729 224.655 345.301 224.368C345.364 224.366 345.424 224.388 345.471 224.429C345.517 224.471 345.545 224.529 345.549 224.592C345.552 224.654 345.53 224.715 345.488 224.761C345.447 224.808 345.388 224.836 345.325 224.839C344.972 224.857 344.62 224.866 344.27 224.866Z" fill="#1D2129"/>
<path d="M338.961 231.232C336.779 231.233 334.547 230.454 332.406 228.931C328.481 226.14 325.911 221.724 325.449 219.427C318.586 223.617 309.544 219.672 309.453 219.632C309.424 219.619 309.399 219.601 309.377 219.579C309.356 219.556 309.339 219.53 309.328 219.501C309.317 219.472 309.312 219.441 309.313 219.41C309.313 219.379 309.32 219.349 309.333 219.32C309.346 219.292 309.364 219.267 309.386 219.245C309.409 219.224 309.435 219.207 309.464 219.196C309.493 219.185 309.524 219.18 309.555 219.181C309.586 219.182 309.617 219.189 309.645 219.201C309.736 219.242 318.817 223.199 325.496 218.839C325.53 218.817 325.569 218.804 325.609 218.801C325.649 218.799 325.69 218.806 325.726 218.823C325.763 218.841 325.794 218.867 325.817 218.9C325.841 218.933 325.855 218.971 325.86 219.011C326.092 221.133 328.799 225.788 332.679 228.547C335.373 230.463 338.206 231.153 340.869 230.547C340.899 230.54 340.931 230.539 340.961 230.544C340.992 230.549 341.021 230.56 341.047 230.577C341.073 230.593 341.096 230.615 341.114 230.64C341.132 230.665 341.145 230.694 341.152 230.724C341.158 230.754 341.159 230.785 341.154 230.816C341.149 230.846 341.138 230.875 341.121 230.902C341.105 230.928 341.083 230.95 341.058 230.968C341.033 230.986 341.004 230.999 340.974 231.006C340.314 231.157 339.638 231.233 338.961 231.232Z" fill="#1D2129"/>
<path d="M339.151 238.883C328.788 238.883 324.956 231.498 322.615 226.989C322.467 226.704 322.326 226.432 322.19 226.174C318.485 228.704 309.235 228.364 308.836 228.348C308.805 228.346 308.774 228.339 308.746 228.326C308.718 228.313 308.693 228.295 308.672 228.272C308.651 228.249 308.635 228.223 308.624 228.194C308.613 228.164 308.608 228.134 308.61 228.103C308.61 228.072 308.617 228.041 308.63 228.012C308.642 227.984 308.661 227.959 308.684 227.937C308.707 227.916 308.734 227.9 308.763 227.89C308.792 227.879 308.824 227.875 308.855 227.877C308.953 227.881 318.722 228.241 322.127 225.638C322.154 225.618 322.186 225.603 322.219 225.596C322.252 225.588 322.287 225.588 322.32 225.595C322.354 225.602 322.385 225.617 322.412 225.637C322.44 225.658 322.462 225.684 322.478 225.714C322.654 226.041 322.839 226.396 323.034 226.772C325.454 231.434 329.504 239.238 340.945 238.34C341.007 238.336 341.069 238.356 341.116 238.396C341.163 238.437 341.193 238.494 341.199 238.556C341.201 238.587 341.198 238.618 341.188 238.647C341.178 238.677 341.163 238.704 341.143 238.728C341.123 238.751 341.098 238.771 341.071 238.785C341.043 238.799 341.013 238.807 340.982 238.809C340.35 238.859 339.74 238.883 339.151 238.883Z" fill="#1D2129"/>
<path d="M328.451 241.582C328.446 241.582 328.441 241.582 328.436 241.582C325.205 241.381 321.217 236.918 319.929 232.128C317.726 233.414 313.764 233.06 313.589 233.044C313.526 233.038 313.469 233.007 313.429 232.959C313.389 232.911 313.37 232.849 313.376 232.787C313.379 232.756 313.387 232.726 313.402 232.698C313.416 232.671 313.436 232.646 313.46 232.626C313.483 232.607 313.511 232.592 313.541 232.583C313.571 232.574 313.602 232.571 313.633 232.574C313.676 232.579 317.957 232.961 319.94 231.561C319.971 231.539 320.008 231.524 320.046 231.52C320.084 231.515 320.123 231.519 320.159 231.533C320.195 231.546 320.227 231.568 320.253 231.597C320.278 231.626 320.296 231.66 320.305 231.698C321.455 236.43 325.345 240.917 328.465 241.112C328.526 241.115 328.584 241.143 328.625 241.188C328.666 241.233 328.688 241.293 328.686 241.354C328.684 241.415 328.659 241.473 328.615 241.516C328.571 241.558 328.512 241.582 328.451 241.582V241.582Z" fill="#1D2129"/>
<path d="M343.5 205.779C343.5 205.779 347.199 209.675 346.022 214.726C347.281 214.742 348.72 214.73 348.72 214.73C348.72 214.73 348.245 210.009 343.5 205.779Z" fill="#1D2129"/>
<path d="M347.532 214.97C347.069 214.97 346.529 214.968 346.021 214.962C345.986 214.961 345.951 214.953 345.919 214.937C345.888 214.922 345.86 214.899 345.838 214.872C345.816 214.844 345.801 214.812 345.794 214.777C345.786 214.743 345.786 214.707 345.794 214.673C346.928 209.808 343.366 205.979 343.33 205.941C343.288 205.897 343.265 205.838 343.266 205.778C343.266 205.717 343.29 205.659 343.332 205.615C343.375 205.571 343.432 205.546 343.493 205.544C343.554 205.541 343.613 205.563 343.659 205.603C348.417 209.845 348.937 214.51 348.957 214.707C348.96 214.739 348.956 214.772 348.946 214.803C348.936 214.835 348.919 214.863 348.897 214.888C348.875 214.912 348.849 214.932 348.819 214.945C348.789 214.959 348.757 214.966 348.724 214.966C348.715 214.966 348.206 214.97 347.532 214.97ZM346.315 214.494C347.152 214.501 348.02 214.498 348.448 214.496C348.299 213.652 347.65 210.857 345.237 207.921C346.077 209.529 346.841 211.854 346.315 214.494Z" fill="#1D2129"/>
<path d="M241.737 151.635C241.688 151.635 241.641 151.625 241.597 151.606C241.552 151.587 241.512 151.559 241.479 151.524C241.446 151.489 241.421 151.447 241.404 151.402C241.388 151.357 241.381 151.309 241.383 151.261L242.481 132.375C242.484 132.313 242.504 132.253 242.538 132.202C242.572 132.15 242.62 132.108 242.675 132.08C242.731 132.052 242.792 132.039 242.854 132.043C242.916 132.047 242.976 132.067 243.028 132.101L258.855 142.492C258.907 142.526 258.949 142.573 258.977 142.629C259.005 142.684 259.018 142.746 259.014 142.808C259.01 142.87 258.991 142.93 258.956 142.982C258.922 143.034 258.875 143.075 258.82 143.103L241.895 151.597C241.846 151.622 241.792 151.635 241.737 151.635ZM243.152 133.027L242.125 150.691L257.954 142.747L243.152 133.027Z" fill="#1D2129"/>
<path d="M46.2458 117.107L38.3884 120.266L30.5312 123.427L31.7198 115.05L32.9084 106.674L39.577 111.89L46.2458 117.107Z" fill="white"/>
<path d="M30.525 123.662C30.4912 123.662 30.4578 123.655 30.4271 123.641C30.3964 123.627 30.369 123.607 30.3468 123.581C30.3247 123.556 30.3083 123.526 30.2987 123.493C30.2892 123.461 30.2867 123.427 30.2914 123.394L32.6686 106.641C32.6744 106.6 32.6909 106.562 32.7165 106.529C32.742 106.497 32.7757 106.471 32.8141 106.456C32.8525 106.441 32.8943 106.435 32.9353 106.441C32.9763 106.447 33.0151 106.464 33.0477 106.489L46.3849 116.921C46.4175 116.947 46.4428 116.98 46.4582 117.019C46.4737 117.057 46.4788 117.099 46.473 117.14C46.4672 117.181 46.4507 117.219 46.4251 117.252C46.3996 117.285 46.3659 117.31 46.3275 117.325L30.6131 123.645C30.5851 123.657 30.5552 123.662 30.525 123.662ZM33.0784 107.112L30.8159 123.056L45.7722 117.041L33.0784 107.112Z" fill="#1D2129"/>
<path d="M248.129 198.645L237.018 194.271L225.906 189.897L235.254 182.473L244.602 175.049L246.366 186.847L248.129 198.645Z" fill="#1664FF"/>
<path d="M248.131 198.88C248.101 198.88 248.072 198.875 248.044 198.864L225.821 190.116C225.783 190.101 225.749 190.076 225.723 190.043C225.697 190.011 225.681 189.972 225.674 189.931C225.668 189.891 225.673 189.849 225.688 189.81C225.703 189.772 225.729 189.738 225.761 189.712L244.457 174.864C244.489 174.838 244.528 174.822 244.569 174.816C244.61 174.809 244.651 174.814 244.69 174.829C244.729 174.845 244.762 174.87 244.788 174.902C244.814 174.934 244.831 174.973 244.837 175.014L248.364 198.61C248.369 198.643 248.367 198.677 248.358 198.71C248.348 198.742 248.332 198.773 248.31 198.798C248.287 198.824 248.26 198.844 248.229 198.859C248.198 198.873 248.165 198.88 248.131 198.88ZM226.374 189.827L247.837 198.276L244.431 175.487L226.374 189.827Z" fill="#1D2129"/>
<path d="M46.002 221.457L35.3096 219.386L24.6172 217.315L31.7584 209.101L38.8999 200.888L42.4508 211.173L46.002 221.457Z" fill="#1D2129"/>
<path d="M46.0034 221.692C45.9883 221.692 45.9733 221.691 45.9585 221.688L24.5738 217.546C24.5331 217.538 24.4953 217.52 24.464 217.493C24.4327 217.465 24.4092 217.431 24.3957 217.391C24.3822 217.352 24.3792 217.31 24.3871 217.27C24.395 217.229 24.4135 217.191 24.4406 217.16L38.7232 200.733C38.7503 200.702 38.7852 200.679 38.8243 200.665C38.8635 200.652 38.9055 200.649 38.9461 200.657C38.9867 200.664 39.0246 200.683 39.0559 200.71C39.0871 200.737 39.1107 200.772 39.1242 200.811L46.2264 221.38C46.2386 221.415 46.2422 221.453 46.2368 221.49C46.2314 221.528 46.2172 221.563 46.1954 221.593C46.1736 221.624 46.1448 221.649 46.1114 221.666C46.078 221.683 46.041 221.692 46.0034 221.692ZM25.0646 217.161L45.6472 221.148L38.8114 201.351L25.0646 217.161Z" fill="#1D2129"/>
<path d="M347.147 105.982H185.219V110.349H347.147V105.982Z" fill="white"/>
<path d="M347.148 110.584H185.22C185.158 110.584 185.098 110.559 185.053 110.515C185.009 110.471 184.984 110.411 184.984 110.348V105.982C184.984 105.951 184.99 105.92 185.002 105.892C185.014 105.863 185.032 105.837 185.053 105.815C185.075 105.793 185.101 105.776 185.13 105.764C185.159 105.752 185.189 105.746 185.22 105.746H347.148C347.179 105.746 347.21 105.752 347.238 105.764C347.267 105.776 347.293 105.793 347.315 105.815C347.337 105.837 347.354 105.863 347.366 105.892C347.378 105.92 347.384 105.951 347.384 105.982V110.348C347.384 110.411 347.359 110.471 347.315 110.515C347.271 110.559 347.211 110.584 347.148 110.584ZM185.456 110.113H346.912V106.217H185.456V110.113Z" fill="#1D2129"/>
<path d="M234.977 101.567H187.375V104.885H234.977V101.567Z" fill="#1D2129"/>
<path d="M234.978 105.12H187.377C187.346 105.12 187.315 105.114 187.286 105.103C187.258 105.091 187.232 105.073 187.21 105.051C187.188 105.03 187.17 105.004 187.159 104.975C187.147 104.946 187.141 104.916 187.141 104.885V101.568C187.141 101.537 187.147 101.506 187.159 101.477C187.17 101.449 187.188 101.423 187.21 101.401C187.232 101.379 187.258 101.362 187.286 101.35C187.315 101.338 187.346 101.332 187.377 101.332H234.978C235.009 101.332 235.04 101.338 235.068 101.35C235.097 101.362 235.123 101.379 235.145 101.401C235.167 101.423 235.184 101.449 235.196 101.477C235.208 101.506 235.214 101.537 235.214 101.568V104.885C235.214 104.916 235.208 104.946 235.196 104.975C235.184 105.004 235.167 105.03 235.145 105.051C235.123 105.073 235.097 105.091 235.068 105.103C235.04 105.114 235.009 105.12 234.978 105.12ZM187.612 104.649H234.742V101.803H187.612V104.649Z" fill="#1D2129"/>
<path d="M247.731 67.0117L232.289 101.039H235.064L250.197 67.0117H247.731Z" fill="#1D2129"/>
<path d="M235.065 101.275H232.291C232.251 101.275 232.212 101.265 232.178 101.246C232.143 101.227 232.114 101.2 232.092 101.167C232.071 101.134 232.058 101.096 232.055 101.057C232.052 101.017 232.059 100.978 232.076 100.942L247.518 66.9142C247.536 66.8729 247.567 66.838 247.605 66.8134C247.643 66.7889 247.687 66.7759 247.732 66.7759H250.199C250.238 66.7759 250.277 66.7857 250.311 66.8044C250.346 66.8232 250.375 66.8502 250.396 66.8831C250.418 66.916 250.431 66.9538 250.434 66.9929C250.437 67.032 250.43 67.0713 250.414 67.1072L235.281 101.135C235.262 101.177 235.232 101.212 235.194 101.237C235.155 101.262 235.111 101.275 235.065 101.275ZM232.656 100.804H234.912L249.836 67.2471H247.884L232.656 100.804Z" fill="#1D2129"/>
<path d="M318.796 0C318.796 0 331.62 7.88254 349.24 13.5542C349.24 13.5542 352.626 53.1192 318.878 71.1509H318.689C284.951 53.1192 288.337 13.5542 288.337 13.5542C306.145 7.98416 318.776 0 318.776 0H318.796Z" fill="#F7F8FA"/>
<path fill-rule="evenodd" clip-rule="evenodd" d="M331.114 23.9983L334.648 27.5283L317.993 44.1636L305.491 31.6761L309.025 28.1461L317.993 37.1035L331.114 23.9983Z" fill="#1664FF"/>
</svg>
