<svg width="12" height="14" viewBox="0 0 12 14" fill="none" xmlns="http://www.w3.org/2000/svg">
<path d="M0.651818 2.58763L5.56091 0.58587V0.585617C5.6993 0.529156 5.84882 0.5 6 0.5C6.15118 0.5 6.3007 0.529156 6.43909 0.585617L11.3482 2.58737C11.542 2.66647 11.7069 2.79621 11.8226 2.96077C11.9384 3.12533 12 3.31759 12 3.5141V6.65111C12 8.57239 11.0738 10.2894 9.42054 11.4877L6.62891 13.3149C6.44489 13.4353 6.22521 13.5 6 13.5C5.77479 13.5 5.55511 13.4353 5.37109 13.3149L2.55818 11.473C0.926181 10.2897 0 8.57264 0 6.65111V3.51385C8.89128e-05 3.31743 0.0617616 3.12527 0.1775 2.96081C0.293238 2.79635 0.458041 2.66668 0.651818 2.58763Z" fill="#1664FF"/>
<path fill-rule="evenodd" clip-rule="evenodd" d="M8.76702 4.86274C8.89692 4.96558 8.91886 5.15426 8.81602 5.28416L5.74253 9.16647C5.66192 9.26829 5.54268 9.33211 5.41325 9.3427C5.28381 9.3533 5.15579 9.30972 5.05969 9.22236L3.21608 7.54635C3.09348 7.4349 3.08444 7.24516 3.1959 7.12257L3.42292 6.87284C3.53438 6.75024 3.72411 6.7412 3.84671 6.85266L5.31898 8.19109L8.08098 4.70225C8.18382 4.57235 8.3725 4.55041 8.5024 4.65325L8.76702 4.86274Z" fill="white"/>
</svg>
