<svg width="162" height="26" viewBox="0 0 162 26" fill="none" xmlns="http://www.w3.org/2000/svg">
   <path
      d="M52.028 1.72084L51.4959 5.99234H61.1636C61.8526 5.99234 62.3847 6.67877 62.2889 7.44914L61.9351 10.2908H54.1084C51.8444 10.2908 49.9263 12.1703 49.6097 14.6972L49.0031 19.5562C48.6759 22.1881 50.4876 24.5351 52.8447 24.5351H62.2943C64.5582 24.5351 66.4763 22.6557 66.7929 20.1287L68.3625 7.54506C68.7456 4.46659 66.6253 1.71484 63.8639 1.71484H52.028V1.72084ZM59.7031 20.2636H56.3058C55.6168 20.2636 55.0847 19.5772 55.1805 18.8068L55.5715 15.6624C55.6514 15.0299 56.1302 14.5623 56.6969 14.5623H61.4004L60.8257 19.1635C60.7486 19.796 60.2697 20.2636 59.7031 20.2636Z"
      fill="#1664FF" />
   <path
      d="M110.287 14.627H91.2393V25.0764H110.287C110.926 25.0764 111.442 24.4949 111.442 23.7754V15.9279C111.442 15.2085 110.923 14.627 110.287 14.627ZM107.768 23.1879H94.8759V20.7479H107.768V23.1879ZM107.768 18.8295H94.8759V16.5154H107.768V18.8295Z"
      fill="#1664FF" />
   <path
      d="M111.228 1.66992H102.526V13.2105H111.313C111.904 13.2105 112.382 12.6709 112.382 12.0054V2.97085C112.382 2.25144 111.866 1.66992 111.228 1.66992ZM109.137 11.349H105.748V3.58535H109.137V11.349Z"
      fill="#1664FF" />
   <path d="M158.498 1.87305H140.168V3.79147H158.498V1.87305Z" fill="#1664FF" />
   <path
      d="M127.364 11.2637H123.698V12.3728H114.496V14.2912H123.698V24.9475H127.364V14.2912H136.593V12.3728H127.364V11.2637Z"
      fill="#1664FF" />
   <path d="M135.007 1.2793L115.174 2.24151V4.13296L135.007 3.20072V1.2793Z" fill="#1664FF" />
   <path
      d="M117.541 10.2444H120.947C120.481 8.35898 119.922 6.61142 119.324 5.09766H115.918C116.517 6.61142 117.076 8.35898 117.541 10.2444Z"
      fill="#1664FF" />
   <path
      d="M123.951 10.2444H127.356C126.891 8.35898 126.332 6.61142 125.733 5.09766H122.328C122.927 6.61142 123.485 8.35898 123.951 10.2444Z"
      fill="#1664FF" />
   <path
      d="M130.094 10.2444H133.499C134.098 8.73068 134.656 6.98311 135.122 5.09766H131.717C131.251 6.98011 130.692 8.73068 130.094 10.2444Z"
      fill="#1664FF" />
   <path
      d="M115.139 24.5562L115.048 24.826H118.744C120.116 21.4058 121.21 18.1594 121.957 15.3867H118.283C117.536 18.1025 116.469 21.2469 115.139 24.5562Z"
      fill="#1664FF" />
   <path
      d="M132.986 15.3457H129.312C130.063 18.1184 131.153 21.3648 132.526 24.785H136.221L136.131 24.5152C134.801 21.2059 133.734 18.0585 132.986 15.3457Z"
      fill="#1664FF" />
   <path
      d="M97.2514 8.58078H101.774V6.66235H98.3289V3.82668H101.473V1.90825H93.7131L93.9499 1H90.9783L89.8477 5.45734H92.7927L93.2157 3.82668H94.631V6.66535H89.9009V8.58378H93.1731C92.2127 10.0825 91.1512 11.3775 89.9993 13.152L89.9674 13.209H93.8249C94.7693 11.7132 95.6339 10.5592 96.4134 9.39312"
      fill="#1664FF" />
   <path
      d="M95.6094 9.39353C96.4022 10.5835 97.2694 11.7316 98.2006 13.2094H102.058L102.026 13.1524C100.877 11.3779 98.988 8.86596 98.0276 7.36719"
      fill="#1664FF" />
   <path
      d="M159.549 12.283V10.3945H139.064V12.283H143.507L139.937 22.6185C139.57 23.6796 140.264 24.8217 141.275 24.8217H155.141L155.758 22.9033H144.162L147.828 12.28H159.549V12.283Z"
      fill="#1664FF" />
   <path
      d="M48.7376 5.9922L49.2696 1.7207H38.3462C35.5156 1.7207 33.1186 4.07078 32.7249 7.22719L31.4745 17.251C30.9957 21.0998 33.6454 24.538 37.0958 24.538H46.423L46.9551 20.2665H39.1417C38.1068 20.2665 37.3113 19.2353 37.455 18.0813L38.7559 7.64684C38.873 6.69962 39.5939 5.9952 40.4426 5.9952H48.7376V5.9922Z"
      fill="#1664FF" />
   <path
      d="M71.0424 8.32624L69.0205 24.5369H75.1047L77.0734 8.7459C77.2702 7.16619 78.4701 5.99415 79.8854 5.99415H84.6128L86.749 1.72266H77.789C74.3917 1.71966 71.5159 4.53735 71.0424 8.32624Z"
      fill="#1664FF" />
   <path
      d="M23.9943 1.7207L23.5341 5.42566L27.3064 7.88065L22.8663 10.7703L21.1504 24.535H27.2346L30.0812 1.7207H23.9943Z"
      fill="#1664FF" />
   <path
      d="M17.9098 1.72266L1.97162 1.73765L1.5699 6.00914H10.8625C11.1205 6.00914 11.2562 6.35086 11.0833 6.56669L0.606859 20.3014C-0.717994 21.9171 0.298258 24.5369 2.25095 24.5369H18.8622L19.3942 20.2654H9.04282C8.78476 20.2654 8.64909 19.9237 8.82201 19.7079L19.4767 5.75735C20.7377 4.21661 19.7693 1.71966 17.9098 1.72266Z"
      fill="#1664FF" />
   <path
      d="M156.145 24.7524H159.992C159.332 22.1925 158.486 19.3629 157.478 16.4043H153.564C154.575 19.3449 155.429 22.1686 156.102 24.7345L156.145 24.7524Z"
      fill="#1664FF" />
</svg>