<?xml version="1.0" encoding="UTF-8"?>
<svg width="16px" height="16px" viewBox="0 0 16 16" version="1.1" xmlns="http://www.w3.org/2000/svg" xmlns:xlink="http://www.w3.org/1999/xlink">
    <!-- Generator: Sketch 64 (93537) - https://sketch.com -->
    <title></title>
    <desc>Created with Sketch.</desc>
    <g id="库存+供货商+员工+合同-管理" stroke="none" stroke-width="1" fill="none" fill-rule="evenodd">
        <g id="员工管理" transform="translate(-485.000000, -224.000000)" fill-rule="nonzero">
            <g id="-mockplus-" transform="translate(485.000000, 224.000000)">
                <g id="表格图标/审批">
                    <rect id="矩形" fill="#000000" opacity="0" x="0" y="0" width="16" height="16"></rect>
                    <g id="设-置" transform="translate(1.000000, 1.000000)" fill="#2E374E">
                        <path d="M5.69297537,13.0976715 L8.30704092,13.0976715 L8.30704092,11.6170057 C8.30704092,11.4433727 8.39454102,11.2683725 8.56817403,11.1808724 C9.00430735,11.0072394 9.43907348,10.7447391 9.7877067,10.4836059 C9.96133972,10.3961058 10.1363399,10.3961058 10.3099729,10.4836059 L11.6170057,11.2670053 L12.9240385,9.00157297 L11.6170057,8.21817363 C11.4433727,8.0459078 11.3558726,7.8709076 11.4433727,7.69727458 C11.4433727,7.43614147 11.5308728,7.26114126 11.5308728,7.00000815 C11.5308728,6.73887503 11.5308728,6.56387483 11.4433727,6.30274171 C11.4433727,6.12910869 11.5308728,5.95410849 11.6170057,5.86660839 L12.9240385,5.08320904 L11.6170057,2.81777672 L10.3099729,3.60117607 C10.1363399,3.68867617 9.96133972,3.68867617 9.7877067,3.60117607 C9.43907348,3.34004295 9.00430735,3.07890983 8.56817403,2.90390963 C8.39454102,2.73027661 8.30704092,2.55527641 8.30704092,2.3816434 L8.30704092,0.9023448 L5.69297537,0.9023448 L5.69297537,2.38301059 C5.69297537,2.5566436 5.60547527,2.7316438 5.43184226,2.81914391 C4.99570894,2.99277692 4.56094281,3.25527723 4.21230959,3.51641034 C4.03867657,3.60391044 3.86367637,3.60391044 3.69004336,3.51641034 L2.38301059,2.81914391 L1.07597781,5.08320904 L2.38301059,5.86660839 C2.5566436,5.95410849 2.6441437,6.12774151 2.5566436,6.30274171 C2.5566436,6.56387483 2.4691435,6.73887503 2.4691435,7.00000815 C2.4691435,7.26114126 2.4691435,7.43614147 2.5566436,7.69727458 C2.6441437,7.8709076 2.5566436,8.0459078 2.38301059,8.1334079 L1.07597781,8.91680725 L2.38301059,11.1822396 L3.69004336,10.3988402 C3.86367637,10.3113401 4.03867657,10.3113401 4.21230959,10.3988402 C4.56094281,10.6599733 4.99570894,10.9211065 5.43184226,11.0961067 C5.60547527,11.1836068 5.69297537,11.3572398 5.69297537,11.53224 L5.69297537,13.0976715 Z M8.74180705,13.9685709 L5.25820924,13.9685709 C4.99707613,13.9685709 4.82207592,13.7949379 4.82207592,13.5324376 L4.82207592,11.8781388 C4.47344271,11.7045058 4.12480949,11.5295056 3.86367637,11.3558726 L2.47051069,12.226772 C2.29687767,12.3142721 2.03437737,12.3142721 1.86074435,12.053139 L0.117578262,9.00430735 C-0.0560547527,8.74317424 0.03007816,8.48204112 0.291211276,8.39454102 L1.68437696,7.52364157 L1.68437696,6.47774191 L0.292578465,5.60684246 C0.0314453491,5.51934236 -0.0560547527,5.25820924 0.118945451,4.99707613 L1.86074435,1.94824445 C1.94824445,1.77461144 2.20937757,1.68711134 2.47051069,1.86074435 L3.86367637,2.7316438 C4.12480949,2.55801079 4.47344271,2.29551048 4.82207592,2.20937757 L4.82207592,0.46621148 C4.82207592,0.205078364 4.99570894,0.03007816 5.25820924,0.03007816 L8.74317424,0.03007816 C9.00430735,0.03007816 9.17930756,0.203711175 9.17930756,0.46621148 L9.17930756,2.12187747 C9.52794077,2.29551048 9.87657399,2.47051069 10.1377071,2.6441437 L11.5308728,1.77324425 C11.7045058,1.68574415 11.9670061,1.68574415 12.1406391,1.94687727 L13.882438,4.99570894 C14.056071,5.25684205 13.9699381,5.51797517 13.708805,5.60547527 L12.3156393,6.47637472 L12.3156393,7.52227438 L13.708805,8.39317383 C13.882438,8.48067393 13.9699381,8.74180705 13.882438,9.00294016 L12.1406391,12.0517718 C12.053139,12.2254049 11.7920059,12.312905 11.5308728,12.2254049 L10.1377071,11.3545054 C9.87657399,11.5281384 9.52794077,11.7906387 9.17930756,11.8767716 L9.17930756,13.5324376 C9.17794037,13.7949379 9.00430735,13.9685709 8.74180705,13.9685709 Z M7.00000815,9.61407369 C5.51934236,9.61407369 4.3859426,8.48204112 4.3859426,7.00000815 C4.3859426,5.51797517 5.51934236,4.3859426 7.00000815,4.3859426 C8.48067393,4.3859426 9.61407369,5.51934236 9.61407369,7.00000815 C9.61407369,8.48067393 8.48067393,9.61407369 7.00000815,9.61407369 Z M7.00000815,5.25820924 C6.04160859,5.25820924 5.25820924,6.04160859 5.25820924,7.00000815 C5.25820924,7.9584077 6.04160859,8.74180705 7.00000815,8.74180705 C7.9584077,8.74180705 8.74180705,7.9584077 8.74180705,7.00000815 C8.74180705,6.04160859 7.9584077,5.25820924 7.00000815,5.25820924 Z" id="形状"></path>
                    </g>
                </g>
            </g>
        </g>
    </g>
</svg>