<?xml version="1.0" encoding="UTF-8"?>
<svg width="16px" height="16px" viewBox="0 0 16 16" version="1.1" xmlns="http://www.w3.org/2000/svg"
   xmlns:xlink="http://www.w3.org/1999/xlink">
   <!-- Generator: Sketch 64 (93537) - https://sketch.com -->
   <title></title>
   <desc>Created with Sketch.</desc>
   <g id="库存+供货商+员工+合同-管理" stroke="none" stroke-width="1" fill="none" fill-rule="evenodd">
      <g id="员工管理" transform="translate(-382.000000, -400.000000)" fill-rule="nonzero">
         <g id="-mockplus-" transform="translate(382.000000, 400.000000)">
            <g id="表格图标/审批备份">
               <g id="删除">
                  <g>
                     <rect id="矩形" fill="#000000" opacity="0" x="0" y="0" width="16" height="16"></rect>
                     <path
                        d="M13.5,5 L13.5,14 C13.5,14.6 13.1,15 12.5,15 L3.5,15 C2.9,15 2.5,14.6 2.5,14 L2.5,5 L13.5,5 Z M7,6 L6,6 L6,12 L7,12 L7,6 Z M10,6 L9,6 L9,12 L10,12 L10,6 Z M10,1 C10.6,1 11,1.4 11,2 L11,3 L15,3 L15,4 L1,4 L1,3 L5,3 L5,2 C5,1.4 5.4,1 6,1 L10,1 Z M10.1,2 L6,2 L6,3 L10.1,3 L10.1,2 Z"
                        id="形状" fill="#1664FF"></path>
                  </g>
               </g>
            </g>
         </g>
      </g>
   </g>
</svg>