<?xml version="1.0" encoding="UTF-8"?>
<svg width="16px" height="16px" viewBox="0 0 16 16" version="1.1" xmlns="http://www.w3.org/2000/svg"
   xmlns:xlink="http://www.w3.org/1999/xlink">
   <!-- Generator: Sketch 64 (93537) - https://sketch.com -->
   <title></title>
   <desc>Created with Sketch.</desc>
   <g id="库存+供货商+员工+合同-管理" stroke="none" stroke-width="1" fill="none" fill-rule="evenodd">
      <g id="员工管理" transform="translate(-382.000000, -366.000000)">
         <g id="-mockplus-" transform="translate(382.000000, 366.000000)">
            <g id="编组-16">
               <g>
                  <rect id="矩形备份-5" fill="#D3A6A6" opacity="0" x="0" y="0" width="16" height="16"></rect>
                  <path
                     d="M8,3 C10.4290087,3 12.6412968,4.48035963 14.6368642,7.4410789 C14.8645537,7.77888997 14.8645543,8.221055 14.6368656,8.55886663 L14.6368656,8.55886663 L14.4296781,8.85988619 C12.4884859,11.6199621 10.3452599,13 8,13 C5.57099128,13 3.35870321,11.5196404 1.36313579,8.5589211 C1.13544626,8.22111003 1.13544572,7.778945 1.36313444,7.44113337 L1.36313444,7.44113337 L1.57032191,7.14011381 C3.51151411,4.38003794 5.65474014,3 8,3 Z M8,6 C6.8954305,6 6,6.8954305 6,8 C6,9.1045695 6.8954305,10 8,10 C9.1045695,10 10,9.1045695 10,8 C10,6.8954305 9.1045695,6 8,6 Z"
                     id="形状结合" fill="#1664FF"></path>
               </g>
            </g>
         </g>
      </g>
   </g>
</svg>